<?xml version="1.0" encoding="UTF-8"?>
<svg version="1.1" viewBox="0 0 2048 2048" width="512" height="512" xmlns="http://www.w3.org/2000/svg">
<path transform="translate(467,4)" d="m0 0h916l15 2 16 5 14 8 10 8 10 10 10 15 6 14 3 12 1 9v77h76l15 2 15 5 14 8 11 9 9 9 10 15 6 14 3 13 1 9v608l-2 15-6 18-9 15-11 12-9 8-11 7-15 6-14 3-8 1-48 1-1 204-4 12-7 12-7 7-9 6-15 5-12 1-12-2-12-5-9-7-8-8-27-33-13-16-14-17-9-11-13-16-14-17-9-11-13-16-14-17-9-11-13-16-10-12-11-14-7-8-8-10h-551l-9 10-7 9-14 17-8 10-18 22-10 9-14 7-8 2h-18l-13-4-11-7-7-7-7-11-4-12-1-11v-195h-48l-19-3-16-6-10-6-10-8-11-11-9-14-5-11-4-13-1-6-1-21v-588l2-18 5-16 8-15 10-13 11-10 13-8 11-5 16-4z" fill="#7CE65E"/>
<path transform="translate(1717,884)" d="m0 0h31l18 2 25 6 20 7 17 8 19 12 13 10 12 11 13 13 15 20 12 21 7 16 6 18 4 17 2 13 1 13v19l-2 22-5 22-7 21-9 19-11 18-9 12-9 11 6 2 20 10 19 12 19 14 10 9 2 1v2l4 2 14 14 9 11 14 18 15 25 12 25 8 22 6 24 4 25 2 24v544l-2 13-4 10-7 9-7 6-8 4-8 2-15 1h-514l-21-1-9-2-9-5-7-6-7-10-4-11-1-10v-199h-186l-18-2-17-5-16-8-11-7-12-11-7-7-9-13-8-15-5-15-3-16v-24l4-20 5-13 6-12 10-14 10-11 10-8 14-9 11-5 16-5 14-2h192v-118l1-21 4-28 7-28 8-22 9-20 10-18 10-15 13-17 11-12 7-8 14-13 17-13 13-9 17-10 15-8 7-3-2-4-13-17-9-14-10-19-8-21-6-24-2-13-1-14v-15l2-21 4-20 5-17 9-21 8-15 11-16 8-10 2-3h2l2-4 14-14 14-11 15-10 25-13 27-9 26-5z" fill="#FDD454"/>
<path transform="translate(300,884)" d="m0 0h31l23 3 20 5 19 7 19 9 16 10 12 9 14 12 11 11 11 14 7 10 9 15 8 17 7 20 5 21 2 14 1 14v12l-2 22-4 20-5 16-6 16-11 21-10 15-9 11-5 6 16 8 23 13 17 12 11 9 11 10 8 7 13 14 11 14 10 14 11 19 8 16 7 16 8 24 6 27 3 25 1 122v13l192 1 18 3 17 6 16 9 11 9 8 7 11 14 8 14 6 14 4 16 1 7v24l-4 19-6 16-9 16-8 10-14 14-14 9-14 7-16 5-10 2-13 1-184 1-1 207-4 11-6 9-5 5-5 4-8 4-7 2-17 1h-511l-23-1-13-4-10-8-8-10-4-10-1-7v-551l2-27 5-26 7-25 8-20 10-21 13-21 13-18 13-15 7-8 8-7 11-10 13-10 15-10 17-10 21-10-2-4-10-12-12-18-11-21-8-22-5-20-3-22v-29l3-22 5-21 7-19 9-19 12-19 14-17 12-12 12-11 17-12 17-10 18-8 18-6 17-4 12-2z" fill="#7CE65E"/>
<path transform="translate(467,4)" d="m0 0h916l15 2 16 5 14 8 10 8 10 10 10 15 6 14 3 12 1 9v77h76l15 2 15 5 14 8 11 9 9 9 10 15 6 14 3 13 1 9v608l-2 15-6 18-9 15-11 12-9 8-11 7-15 6-14 3-8 1-48 1-1 204-4 12-7 12-7 7-9 6-15 5-12 1-12-2-12-5-9-7-8-8-27-33-13-16-14-17-9-11-13-16-14-17-9-11-13-16-14-17-9-11-13-16-10-12-11-14-7-8-8-10h-551l-9 10-7 9-14 17-8 10-18 22-10 9-14 7-8 2h-18l-13-4-11-7-7-7-7-11-4-12-1-11v-195h-48l-19-3-16-6-10-6-10-8-11-11-9-14-5-11-4-13-1-6-1-21v-588l2-18 5-16 8-15 10-13 11-10 13-8 11-5 16-4zm6 59-10 2-10 7-8 9-3 7-1 10v520l1 78 4 10 7 8 8 5 10 2 81 1 10 4 7 7 5 10 1 7v183l1 20 5-5 9-11 11-13 11-14 11-13 8-10 14-17 9-11 14-17 9-11 14-17 13-16 9-11 8-10 11-13 11-14 14-17 9-8 9-3 601-1 12-2 10-6 7-9 3-10 1-145-1-458-3-9-5-8-7-6-11-4z" fill="#010101"/>
<path transform="translate(300,884)" d="m0 0h31l23 3 20 5 19 7 19 9 16 10 12 9 14 12 11 11 11 14 7 10 9 15 8 17 7 20 5 21 2 14 1 14v12l-2 22-4 20-5 16-6 16-11 21-10 15-9 11-5 6 16 8 23 13 17 12 11 9 11 10 8 7 13 14 11 14 10 14 11 19 8 16 7 16 8 24 6 27 3 25 1 122v13l192 1 18 3 17 6 16 9 11 9 8 7 11 14 8 14 6 14 4 16 1 7v24l-4 19-6 16-9 16-8 10-14 14-14 9-14 7-16 5-10 2-13 1-184 1-1 207-4 11-6 9-5 5-5 4-8 4-7 2-17 1h-511l-23-1-13-4-10-8-8-10-4-10-1-7v-551l2-27 5-26 7-25 8-20 10-21 13-21 13-18 13-15 7-8 8-7 11-10 13-10 15-10 17-10 21-10-2-4-10-12-12-18-11-21-8-22-5-20-3-22v-29l3-22 5-21 7-19 9-19 12-19 14-17 12-12 12-11 17-12 17-10 18-8 18-6 17-4 12-2zm-76 375-20 6-19 8-16 8-14 9-12 9-14 12-11 11-9 11-11 15-10 17-8 17-9 27-5 23-2 16-1 28v84l1 423h501l1-3v-180h-16l-35-1-18-2-20-5-19-9-16-12-11-11-9-13-9-17-5-15-3-22v-234l3-10 7-9 6-4 6-2h14l10 4 7 7 4 8 1 3 1 230 2 14 6 15 9 11 10 7 11 5 16 2h289l15-2 12-5 10-8 7-9 6-12 2-8v-14l-4-13-6-11-5-6-8-6-12-6-9-2-222-1-11-4-8-6-6-10-1-9-1-161-3-23-6-24-8-22-11-22-10-15-10-13-12-13-7-7-11-9-12-9-16-10-25-12-21-7-7-2h-7l-20 8-17 5-22 4-19 2h-13l-21-2-24-5-17-5-17-7z" fill="#010101"/>
<path transform="translate(1717,884)" d="m0 0h31l18 2 25 6 20 7 17 8 19 12 13 10 12 11 13 13 15 20 12 21 7 16 6 18 4 17 2 13 1 13v19l-2 22-5 22-7 21-9 19-11 18-9 12-9 11 6 2 20 10 19 12 19 14 10 9 2 1v2l4 2 14 14 9 11 14 18 15 25 12 25 8 22 6 24 4 25 2 24v544l-2 13-4 10-7 9-7 6-8 4-8 2-15 1h-514l-21-1-9-2-9-5-7-6-7-10-4-11-1-10v-199h-186l-18-2-17-5-16-8-11-7-12-11-7-7-9-13-8-15-5-15-3-16v-24l4-20 5-13 6-12 10-14 10-11 10-8 14-9 11-5 16-5 14-2h192v-118l1-21 4-28 7-28 8-22 9-20 10-18 10-15 13-17 11-12 7-8 14-13 17-13 13-9 17-10 15-8 7-3-2-4-13-17-9-14-10-19-8-21-6-24-2-13-1-14v-15l2-21 4-20 5-17 9-21 8-15 11-16 8-10 2-3h2l2-4 14-14 14-11 15-10 25-13 27-9 26-5zm-73 374-18 5-20 8-22 11-19 13-11 9-10 9-9 9-9 11-13 18-9 16-10 23-6 20-4 17-2 14-1 13v154l-2 10-6 10-8 6-5 2-7 1h-201l-20 1-13 4-10 6-6 5-8 11-4 9-2 8v15l4 13 6 11 10 10 16 8 10 2h300l14-3 10-5 10-8 8-11 5-12 2-11v-142l1-91 3-9 8-9 8-4 5-1h10l11 4 4 4h2l2 5 4 9 1 8v50l-1 185-3 18-7 19-8 14-10 13-9 9-12 9-12 7-15 6-17 4-10 1-56 1-2 4v179l7 1h75l420-1 1-357v-172l-2-21-5-25-8-24-11-23-12-19-11-14-14-15-13-12-12-9-15-10-17-9-25-10-18-5-9 3-12 5-20 6-22 4-11 1h-27l-20-2-23-5-20-7-11-5z" fill="#010201"/>
<path transform="translate(911,83)" d="m0 0h27l25 3 25 6 20 7 25 12 19 12 16 12 13 12 9 9 9 11 11 15 12 21 10 23 7 25 4 27v33l-4 27-7 28-8 22-14 29-12 20-11 15-10 13-12 14-3 5 8 13 4 13 1 8v45l-4 16-6 11-7 8-8 6-10 5-4 1-1 6-3 16-7 19-7 12-8 10-7 7-10 7-17 9-14 4-20 2h-39l-15-2-15-5-17-9-11-9-7-7-9-13-7-15-4-13-3-17-1-2-11-4-11-8-8-9-6-12-3-15v-47l4-16 5-10 3-4-1-5-5-5-13-16-10-13-13-20-10-18-8-17-9-24-7-26-4-24v-45l5-27 7-23 8-18 8-15 11-16 8-10 9-10 7-8 8-7 15-12 20-13 23-12 25-9 20-5 19-3z" fill="#010101"/>
<path transform="translate(1469,224)" d="m0 0h71l8 2 9 5 6 7 4 8 1 5v605l-4 9-6 8-10 6-6 2-66 1-21 1-8 4-7 7-4 10-1 60v149l-4-2-9-11-11-13-14-17-11-14-12-14-8-10-63-77-13-16-9-11-13-16-14-17-5-6-8-5-9-2-518-1 3-5 13-16 11-14 12-14 11-14 11-13 8-10 12-14 11-1h573l14-1 15-4 16-8 9-6 12-11 9-12 7-15 4-14 2-10 1-178v-296z" fill="#FCD454"/>
<path transform="translate(1717,944)" d="m0 0h31l18 3 21 7 21 11 12 9 10 9 12 12 9 13 9 16 6 15 4 16 2 15v23l-2 15-6 21-10 21-11 16-11 12-8 8-15 11-21 11-21 7-15 3-9 1h-21l-20-3-16-5-15-6-16-9-13-10-12-11-9-11-10-15-8-16-6-18-4-21v-25l4-22 6-18 11-21 10-14 11-12 8-7 14-10 10-6 19-8 18-5z" fill="#FCDEC3"/>
<path transform="translate(300,944)" d="m0 0h31l17 3 16 5 16 7 15 9 14 11 14 14 12 17 9 17 7 21 3 15 1 8v22l-4 22-5 15-7 16-12 18-12 14-11 10-16 11-16 8-12 5-21 5-14 2h-19l-20-3-15-4-15-6-15-8-14-10-10-9-9-9-10-14-8-14-7-16-5-18-2-13v-29l4-20 5-15 9-19 12-17 14-15 12-10 18-11 18-8 18-5z" fill="#FCDEC3"/>
<path transform="translate(915,143)" d="m0 0h21l21 3 21 6 19 8 13 7 13 9 11 9 14 14 10 13 9 15 7 15 6 20 3 17v32l-5 26-5 16-8 20-10 19-10 16-10 13-14 17-12 15-8 12-2 2h-15l1-10 12-49 24-100 7-30v-10l-4-10-4-6-8-5-11-3-10 1-16 8-25 15-21 13-5 2-22-13-20-12-19-11-5-2-10-1-13 4-8 7-4 8-1 3v14l5 23 16 68 14 59 7 29v7l-1 1h-13l-8-11-9-12-11-13-8-10-10-14-11-18-9-17-8-21-6-21-3-21v-31l3-17 6-20 8-17 12-18 13-15 11-10 15-11 13-8 20-9 20-6 16-3z" fill="#FCD454"/>
<path transform="translate(1219,110)" d="m0 0h16l9 4 5 4 6 10 2 6v12l-4 10-7 8-15 9-23 13-16 9-9 3h-9l-11-4-8-7-5-8-2-7v-9l4-11 5-6 9-6 22-13 26-15z" fill="#010101"/>
<path transform="translate(664,405)" d="m0 0h14l10 4 6 5 6 10 2 8-1 10-3 7-4 6-7 6-17 10-28 16-11 5-4 1h-8l-10-3-8-6-6-8-3-10 1-11 5-10 7-7 26-15 24-14z" fill="#010101"/>
<path transform="translate(620,109)" d="m0 0 13 2 12 6 19 11 22 13 10 9 4 8 2 8-1 9-3 8-4 6-8 6-10 3h-9l-12-5-22-12-24-14-9-7-6-10-2-8 1-10 4-9 7-8 7-4z" fill="#010101"/>
<path transform="translate(1210,271)" d="m0 0h65l9 3 6 4 6 7 4 9 1 11-4 11-4 6-6 5-10 4h-69l-10-4-8-7-5-10-1-4v-10l4-10 5-7 10-6z" fill="#010101"/>
<path transform="translate(1171,405)" d="m0 0h13l11 4 24 14 26 15 8 9 4 10v13l-6 12-8 7-10 4h-10l-11-4-27-15-22-13-9-8-4-8-2-7v-7l3-10 7-9 10-6z" fill="#010101"/>
<path transform="translate(575,271)" d="m0 0h64l10 3 6 4 7 8 4 12v7l-4 11-6 8-7 5-7 2h-68l-11-4-7-6-5-8-2-8v-7l3-10 4-6 8-7 6-3z" fill="#010101"/>
<path transform="translate(836,526)" d="m0 0h178l1 1v24l-1 1h-178l-1-1v-24z" fill="#7CE55D"/>
<path transform="translate(896,337)" d="m0 0 5 1 14 7 11 2 12-3 12-7h3l-4 18-16 67-7 30h-2l-3-9-13-55-12-49z" fill="#F7D454"/>
<path transform="translate(876,612)" d="m0 0h98l1 2-4 10-7 9-9 6-5 2-6 1h-40l-11-4-8-6-6-9-3-8z" fill="#FAD454"/>
<path transform="translate(837,542)" d="m0 0 4 1 5 5 14 1v1l-23 1-1-3v-5z" fill="#FBFCFA"/>
</svg>
