<?xml version="1.0" encoding="UTF-8"?>
<svg version="1.1" viewBox="0 0 2048 2048" width="512" height="512" xmlns="http://www.w3.org/2000/svg">
<path transform="translate(156,112)" d="m0 0h169l12 2 11 6 7 7 6 10 3 12v3l99-1 4-15 9-13 10-7 8-3 12-1 14 3 10 7 8 9 4 9 3 11h86l4-15 7-11 7-6 10-5 9-2h1222l24 2 18 4 20 7 19 10 14 10 13 11 10 10 13 17 9 16 7 15 7 22 4 25v552l-5 26-8 24-12 23-12 16-12 13-14 12-15 10-17 9-20 7-17 4-17 2-20 1-149 1 11 35 7 29 5 26 5 38 1 14v57l-2 30-3 23-7 39-7 26-11 35-12 29-11 25-15 27-12 21-8 11-2 5 4 2 58 58 4-1 10-6 12-3h7l11 3 10 6 5 5 4 5 4 8 2 8v10l-4 13-6 8-1 4 4 2 33 33 4-1 9-6 13-3 12 1 8 3 11 7 129 129 11 14 7 11 9 19 6 20 3 18v23l-5 23-5 15-8 16-7 12-13 15-9 9-16 12-22 11-24 7-14 2h-26l-15-2-20-6-21-10-10-7-11-9-10-9-312-312-5 1-28 15-29 13-30 11-29 9-28 7-39 7-40 4-31 1-45-2-33-4-30-5-35-9-15-4-36-13-25-11-23-11-21-12-23-14-17-12-21-16-9-7-12-11-8-7-16-15-8-8-7-8-14-15-11-14-16-21-12-18-16-26-12-22-16-34-14-38-7-23-9-37-7-45-2-26-1-18v-33l2-32 6-42 8-37 9-30 5-15-584-1-29-2-20-4-20-7-23-12-13-10-11-9-9-9-8-10-9-13-8-14-8-20-6-23-2-13v-558l5-24 8-24 9-17 7-11 11-14 6-7 8-7 15-12 17-10 17-8 25-7 15-2z" fill="#010101"/>
<path transform="translate(500,112)" d="m0 0 13 1 8 3 9 6 8 9 4 9 3 11h86l2-4 2 16 4 10 9 10 10 5 8 2 9 1 1223 1 14 3 12 5 14 9 12 12 9 13 5 12 3 11 1 9v541l-3 16-7 16-8 12-12 12-13 8-11 5-10 3-8 1h-204l-16-25-9-14-14-19-14-18-11-12v-2h-2l-7-8-16-17-8-7-17-16-14-11-17-13-18-13-15-9-19-12-41-21-32-13-10-4 1-6 16-34 8-16 17-36 13-26 2-6 3 1 14 26 22 43 10 19 20 39 9 15 8 7 8 4 7 2h14l10-3 9-6 6-7 12-23 14-29 11-23 10-22 8-16 31-64 11-23 5-11 4-12 1-8-3-13-6-11-8-7-10-5-10-2-11 1-10 4-6 4-8 9-11 21-13 28-9 19-8 16-14 29-11 23-1 2h-3l-16-31-20-38-8-16-21-41-8-14-5-6-11-7-14-3-11 1-10 4-6 4-7 8-11 21-11 23-24 50-14 29-8 16-3-1-15-29-10-19-10-20-10-19-20-39-10-16-7-6-10-5-5-1h-15l-12 4-8 6-6 9-4 11-1 11 3 12 8 17 12 22 13 26 10 19 15 29 16 31 10 19 4 8v3l-21-1-26-2-33-1-29 1-38 4-39 7-29 7-1-2 11-23 14-29 11-23 16-34 21-43 11-23 6-15 2-9-1-12-4-10-4-6-9-8-9-4-13-2-14 3-11 7-8 11-8 16-18 37-11 23-15 31-11 23-3 6-4-4-20-39-10-19-10-20-10-19-17-33-8-11-7-6-8-4-11-2-11 1-11 4-9 7-7 11-15 31-11 23-12 25-14 29-11 23-3 3-12-22-11-22-10-19-20-39-14-27-9-14-9-8-9-4-5-1h-14l-10 3-11 8-6 9-3 8-1 6v9l4 13 8 16 18 35 10 19 18 35 10 19 14 27 23 45 9 16 6 7 7 5 13 4h14l11-4 9-7 7-10 20-41 11-23 12-25 14-29 8-17h3l8 16 23 45 10 19 18 35 14 26-1 3-20 10-20 11-24 15-17 12-19 14-28 24-13 12-12 12-7 8-8 8-9 11-11 13-14 19-12 17-12 20-6 8h-633l-14-2-14-5-12-7-10-8v-2h-2l-10-13-8-16-3-11-1-7-1-18v-499l1-31 4-16 8-16 8-11 7-7 13-9 13-6 9-3 8-1 34-1h133l18-2 12-6 6-5 6-10 3-9 2-7 99-1 4-15 9-13 10-7 8-3z" fill="#FCC46D"/>
<path transform="translate(1215,696)" d="m0 0h50l18 1 44 7 21 5 23 6 41 15 41 20 26 16 16 11 26 20 12 11 8 7 13 12 12 13 7 8 11 13 12 16 12 17 17 28 9 17 13 28 13 36 8 29 6 29 4 26 2 31v37l-1 21-5 36-5 24-7 27-11 32-10 23-14 29-17 28-11 16-20 26-11 12-10 11-7 8-13 12-8 7-11 10-12 9-19 14-24 15-19 11-29 14-20 8-33 11-32 8-37 6-18 2-18 1h-38l-30-2-36-6-26-6-24-7-33-12-28-13-22-12-23-14-14-10-21-16-10-9-11-9-7-7-8-7-11-12-10-11-9-11-10-13-14-19-10-17-9-15-8-15-13-28-13-36-7-25-6-26-5-32-2-27v-47l2-26 6-37 10-40 7-21 11-28 10-21 10-19 14-23 11-16 13-17 7-9 12-14 7-7 7-8 11-11 8-7 4-2v-2l11-9 18-14 18-13 22-13 17-10 23-11 19-8 34-12 40-10 38-6 7-1z" fill="#6FD5FD"/>
<path transform="translate(1215,696)" d="m0 0h50l18 1 44 7 21 5 23 6 41 15 41 20 26 16 16 11 26 20 12 11 8 7 13 12 12 13 7 8 11 13 12 16 12 17 17 28 9 17 13 28 13 36 8 29 6 29 4 26 2 31v37l-1 21-5 36-5 24-7 27-11 32-10 23-14 29-17 28-11 16-20 26-11 12-10 11-7 8-13 12-8 7-11 10-12 9-19 14-24 15-19 11-29 14-20 8-33 11-32 8-37 6-18 2-18 1h-38l-30-2-36-6-26-6-24-7-33-12-28-13-22-12-23-14-14-10-21-16-10-9-11-9-7-7-8-7-11-12-10-11-9-11-10-13-14-19-10-17-9-15-8-15-13-28-13-36-7-25-6-26-5-32-2-27v-47l2-26 6-37 10-40 7-21 11-28 10-21 10-19 14-23 11-16 13-17 7-9 12-14 7-7 7-8 11-11 8-7 4-2v-2l11-9 18-14 18-13 22-13 17-10 23-11 19-8 34-12 40-10 38-6 7-1zm17 88-31 2-32 5-28 7-21 7-22 9-25 12-25 15-17 12-14 11-10 9-12 11-14 14-7 8-10 12-14 19-7 11-12 20-13 26-10 26-5 15-8 31-4 25-3 41 1 25 2 23 5 30 8 31 11 30 12 25 9 17 14 22 12 16 8 10 9 10 7 8 15 15 8 7 13 11 19 14 21 13 14 8 27 13 30 11 25 7 25 5 26 3 13 1h36l31-3 24-4 27-7 21-7 22-9 25-12 23-14 17-12 17-13 5-4v-2l4-2 17-16 7-7 7-8 11-13 14-19 12-19 9-16 13-27 12-33 8-31 4-23 2-15 1-18v-34l-2-26-5-30-8-31-10-28-8-18-8-17-12-20-10-15-12-16-9-11-12-13-1-2h-2l-2-4-15-14-14-12-19-14-15-10-22-13-29-14-33-12-32-8-32-5-33-2z" fill="#FCFCFB"/>
<path transform="translate(1232,784)" d="m0 0h14l33 2 32 5 35 9 32 12 31 15 26 16 19 14 10 8 13 11 7 7 8 7v2h2l7 8 9 10 13 17 12 17 13 22 8 16 8 17 9 24 6 20 6 24 5 34 1 18v34l-1 18-5 33-6 25-5 17-11 29-14 29-13 22-9 13-9 12-8 10-11 12-7 8-10 10-8 7-4 2v2l-14 11-16 12-19 12-19 11-28 13-27 10-30 8-21 4-24 3-14 1h-36l-31-3-24-4-24-6-27-9-24-10-24-12-16-10-15-10-21-16-12-11-10-9-14-14-7-8-13-16-10-14-12-19-9-16-12-24-13-35-9-35-5-35-2-31 1-24 2-25 5-30 10-36 10-26 12-25 8-15 8-13 9-13 9-12 11-14 7-7 7-8 16-16 8-7 12-10 19-14 21-13 16-9 23-11 32-12 30-8 29-5 19-2zm-13 80-24 3-20 4-24 7-22 9-16 8-18 10-17 12-14 11-16 15-10 10-9 11-12 15-9 14-8 13-12 26-9 25-6 24-4 24-1 14v32l2 22 4 22 6 23 9 24 12 25 11 18 10 14 8 10 11 12 7 8 15 14 17 13 14 10 17 10 23 11 28 10 24 6 26 4 19 1h20l17-1 30-5 23-6 17-6 21-9 17-9 16-10 19-14 10-9 8-7 12-12 9-11 10-12 10-15 11-19 12-25 10-30 5-22 3-19 1-13v-35l-2-20-4-22-6-22-7-20-7-16-11-21-11-17-12-16-12-14-4-5-8-7-14-13-16-12-10-7-20-12-21-10-31-11-26-6-19-3-13-1z" fill="#010101"/>
<path transform="translate(416,392)" d="m0 0 11 1 11 4 9 7 6 8 15 28 11 22 10 19 20 39 15 28 3 1 3-9 11-24 8-16 14-29 11-23 17-35 7-9 6-5 10-5 13-2 14 3 11 7 7 8 4 8 2 7v13l-4 13-11 23-12 25-13 27-11 23-24 50-18 38-10 21-7 9-8 7-9 4-4 1h-15l-11-4-9-6-7-9-12-23-10-19-20-39-15-29-11-20-2-7-3 1-8 16-22 45-13 28-15 31-8 16-7 9-9 6-10 4h-15l-14-5-10-9-7-11-18-35-15-29-17-33-15-29-12-23-10-19-14-27-6-13-2-8v-14l4-11 6-8 8-7 9-4 4-1h14l8 2 11 6 8 9 8 14 15 29 17 33 29 56 4 7 3-4 13-28 8-17 8-16 14-29 11-23 8-17 7-10 8-7 8-4z" fill="#010101"/>
<path transform="translate(1668,1428)" d="m0 0 1 3 4 2 58 58 4-1 10-6 12-3h7l11 3 10 6 5 5 4 5 4 8 2 8v10l-4 13-6 8-1 4 4 2 35 35-6 8-4 9-1 5v12l3 10 9 13 122 122 10 13 5 11 2 10v16l-4 13-4 8-7 9-10 9-11 5-9 3-6 1h-8l-14-3-14-7-10-8-305-305 2-5 11-9 9-9 8-7 13-12 13-14 7-8 11-12 8-10 13-18z" fill="#FD6161"/>
<path transform="translate(1238,956)" d="m0 0 26 2 15 2 28 9 16 8 18 10 16 13 12 11 9 10 12 16 10 18 6 12 8 24 3 14 2 18v19l-4 13-8 10-8 6-9 3-6 1h-9l-11-3-7-4-6-5-6-9-3-8-2-9-2-19-6-20-9-17-10-13-7-7-12-9-15-8-21-6-23-3-11-3-11-7-7-9-4-9-1-4v-13l4-13 8-10 10-7 9-3z" fill="#010101"/>
<path transform="translate(500,112)" d="m0 0 13 1 8 3 9 6 8 9 4 9 2 8-1 10-4 12-6 9h-2v2l-9 6-8 3-5 1h-10l-13-4-10-7-8-11-3-12v-14l3-9 8-11 10-7 8-3z" fill="#020201"/>
<path transform="translate(1757,1481)" d="m0 0h7l11 3 10 6 5 5 4 5 4 8 2 8v10l-4 13-6 8-9 7-7 4-8 2h-12l-10-3-9-6-8-9-5-11-1-5v-11l4-12 7-10 7-6 9-4z" fill="#030201"/>
</svg>
