<?xml version="1.0" encoding="UTF-8"?>
<svg version="1.1" viewBox="0 0 2048 2048" width="512" height="512" xmlns="http://www.w3.org/2000/svg">
<path transform="translate(684,288)" d="m0 0h20v223l-6 1h-18l-5-3-8-8-14-9-11-5-12-4-12-2h-22l-15 3-15 6-11 6-14 11-9 10-8 13-5 10-5 17-2 19 2 18 4 15 4 10 7 11 7 9 2 4h2v2l4 2 10 8 17 9 17 5 13 2h13l18-3 16-6 14-8 9-7 7-7h25l1 1v191l191-1v-24l-9-10-10-14-7-16-4-15-1-6v-21l3-15 5-14 9-16 11-13 9-8 14-9 14-6 17-4h27l18 4 19 9 12 9 6 5 7 8 10 15 7 17 3 13 1 8v12l-2 16-5 16-9 17-8 10-6 6-1 3-1 24h223l1 1v13l-2 34-4 33-5 28-7 30-7 24-11 32-11 26-13 28-13 23-15 26-12 17-14 19-9 11-12 14-18 20-17 17-8 7-10 9-11 9-15 12-9 7-1 104h39l14 3 10 4 4 2 8-7 5-6 8-7 51-51 5-6 8-7 13-13 7 6 15 15 7 8 21 21 6-1 20-9 21-8 1-1 1-70 1-1h174l1 1v71l11 3 23 10 13 6 8-7 45-45v-51l-5-1-18-8-14-8-13-9-8-6-5 1-17 10-26 15-14 8-5 1-5-8-15-26-14-24-8-14-21-36 1-4 10-6 29-17 23-13-1-12-1-7v-33l2-12v-6l-52-30-11-7 1-5 14-24 11-19 14-24 16-28 6-10 4-1 21 12 26 15 15 9 4-2 16-12 16-9 17-8 7-3 1-74 1-1h127l1 1v73l11 5 17 8 16 10 12 9 5 3 23-13 24-14 15-9 4 1 10 18 14 24 15 26 16 28 7 11v3l-28 16-26 15-8 5h-2l2 15 1 26-2 22v8l29 17 24 13 11 7-2 5-32 56-14 24-11 19-5 8-5-2-24-14-25-14-10-6-4 1-15 11-19 11-17 8-5 2-1 74-3 1h-105l97 97 3 5-50 50 2 5 9 21 8 21 71 1 1 1v174l-2 1-70 1-10 26-9 20 7 8 22 22 8 7 13 13-1 4-123 123-7-6-44-44-5 1-17 8-24 9h-2v71l-11 1h-164l-1-1-1-70-27-11-16-7-4-1-6 6h-2l-2 4-39 39-4-1-123-123 1-3 8-7 41-41-1-4-10-22-8-21-71-1-2-17-3 22-7 27-9 27-11 25-11 21-10 16-13 18-9 11-9 10-7 8-11 11-8 7-16 13-20 14-21 12-17 9-24 10-25 8-25 6-27 4-27 2h-17l-29-2-30-5-27-7-20-7-23-10-23-12-23-14-17-13-13-11-13-12-9-9-9-11-11-13-14-20-14-24-12-25-10-27-7-26-4-21-3-23v-28h-42l-10-2-16-8-10-9-8-9-8-16-2-6v-27l5-15 7-11 9-10 13-9 15-6-18-8-9-7-10-10-8-14-4-11v-27l5-15 7-11 9-10 10-7 12-6 7-2 45-1v-103l-25-20-14-12-15-13-25-25-9-11-11-12-11-14-12-16-13-19-12-19-14-25-8-16-10-21-12-30-12-36-8-32-7-38-4-33-1-11v-77l4-36 6-35 10-40 12-37 13-32 11-24 12-22 13-22 16-24 13-18 18-22 12-14 8-8 2-3h2l2-4 7-7 8-7 3-3h2v-2l8-7 14-12 15-12 19-14 21-14 18-11 21-12 24-12 28-12 24-9 32-10 38-9 37-6 31-3zm-170 569m1 1m3 4m2 3m4 5m4 7m2 3m7 15m1 3m3 9m1 7m1082 78-17 4-13 7-10 9-7 8-7 14-3 11v22l4 14 5 9 7 9 10 9 16 8 12 3 12 1 17-4 16-8 10-9 7-8 6-12 3-10 1-8v-10l-2-13-5-12-7-10-7-8-10-7-10-5-18-4zm-843 1v1h5v-1zm-4 1m72 11m2 1m3 2m1 1m2 1m1 1m1 1m1 1m2 1m1 1m1 1m1 1m1 1m1 1m1 1m1 1m1 1m1 1m1 1 1 2zm1 2m1 1m1 1m1 1m3 5m3 5m2 3m4 8m2 5m4 15m472 370-26 4-23 7-17 8-17 11-10 8-10 9-7 7-13 17-10 18-7 16-6 20-3 20-1 19 4 29 5 18 8 19 10 18 11 14 11 12 10 9 11 8 13 8 19 9 15 5 10 3 24 3 12 1 5-1h7l19-3 20-6 16-7 15-8 14-10 13-12 10-10 12-16 10-18 7-17 5-18 4-31-1-17-4-24-5-16-7-17-9-16-11-15-11-12-12-11-13-9-14-8-10-5-20-7-12-3-22-3zm-259 39-7 8-10 7-12 6-11 4 2 2 20 6h6l5-12 7-17 1-4z" fill="#D1D8DB"/>
<path transform="translate(684,288)" d="m0 0h20v223l-6 1h-18l-5-3-8-8-14-9-11-5-12-4-12-2h-22l-15 3-15 6-11 6-14 11-9 10-8 13-5 10-5 17-2 19 2 18 4 15 4 10 7 11 7 9 2 4h2v2l4 2 10 8 17 9 17 5 13 2h13l18-3 16-6 14-8 9-7 7-7h25l1 1v191l3 1h-3v191l16-1 10-2 16-12 9-6 14-6 12-3h8v-3h24l5 3 15 4 14 6 12 8 12 11 8 11 8 14 5 12 4 17 1 14-2 12-3 14-2 4-2 8-3 3-8 14-5 4-7 8-5 6-5 2-4 2v2l-16 8-9 2-12 4-9 1h-12l-16-3-14-5-14-7-10-8-4-4-8-5-22-1-1 55-1 169h-320v-104l-25-20-14-12-15-13-25-25-9-11-11-12-11-14-12-16-13-19-12-19-14-25-8-16-10-21-12-30-12-36-8-32-7-38-4-33-1-11v-77l4-36 6-35 10-40 12-37 13-32 11-24 12-22 13-22 16-24 13-18 18-22 12-14 8-8 2-3h2l2-4 7-7 8-7 3-3h2v-2l8-7 14-12 15-12 19-14 21-14 18-11 21-12 24-12 28-12 24-9 32-10 38-9 37-6 31-3z" fill="#ED5751"/>
<path transform="translate(1566,800)" d="m0 0h127l1 1v73l11 5 17 8 16 10 12 9 5 3 23-13 24-14 15-9 4 1 10 18 14 24 15 26 16 28 7 11v3l-28 16-26 15-8 5h-2l2 15 1 26-2 22v8l29 17 24 13 11 7-2 5-32 56-14 24-11 19-5 8-5-2-24-14-25-14-10-6-4 1-15 11-19 11-17 8-5 2-1 74-3 1h-105l97 97 3 5-50 50 2 5 9 21 8 21 71 1 1 1v174l-2 1-70 1-10 26-9 20 7 8 22 22 8 7 13 13-1 4-123 123-7-6-44-44-5 1-17 8-24 9h-2v71l-11 1h-164l-1-1-1-70-27-11-16-7-4-1-6 6h-2l-2 4-39 39-4-1-123-123 1-3 8-7 41-41-1-4-10-22-8-21-71-1-2-21 1-155 66-1h6l7-19 8-19 2-5v-7l-4-2-8-7-7-8-9-9-7-8-13-13 3-5 24-24 8-7 5-6 8-7 51-51 5-6 8-7 13-13 7 6 15 15 7 8 21 21 6-1 20-9 21-8 1-1 1-70 1-1h174l1 1v71l11 3 23 10 13 6 8-7 45-45v-51l-5-1-18-8-14-8-13-9-8-6-5 1-17 10-26 15-14 8-5 1-5-8-15-26-14-24-8-14-21-36 1-4 10-6 29-17 23-13-1-12-1-7v-33l2-12v-6l-52-30-11-7 1-5 14-24 11-19 14-24 16-28 6-10 4-1 21 12 26 15 15 9 4-2 16-12 16-9 17-8 7-3 1-74zm58 192-17 4-13 7-10 9-7 8-7 14-3 11v22l4 14 5 9 7 9 10 9 16 8 12 3 12 1 17-4 16-8 10-9 7-8 6-12 3-10 1-8v-10l-2-13-5-12-7-10-7-8-10-7-10-5-18-4zm-258 448-26 4-23 7-17 8-17 11-10 8-10 9-7 7-13 17-10 18-7 16-6 20-3 20-1 19 4 29 5 18 8 19 10 18 11 14 11 12 10 9 11 8 13 8 19 9 15 5 10 3 24 3 12 1 5-1h7l19-3 20-6 16-7 15-8 14-10 13-12 10-10 12-16 10-18 7-17 5-18 4-31-1-17-4-24-5-16-7-17-9-16-11-15-11-12-12-11-13-9-14-8-10-5-20-7-12-3-22-3z" fill="#FDCD09"/>
<path transform="translate(946,640)" d="m0 0h27l18 4 19 9 12 9 6 5 7 8 10 15 7 17 3 13 1 8v12l-2 16-5 16-9 17-8 10-6 6-1 3-1 24h223l1 1v13l-2 34-4 33-5 28-7 30-7 24-11 32-11 26-13 28-13 23-15 26-12 17-14 19-9 11-12 14-18 20-17 17-8 7-10 9-11 9-15 12-9 7-1 104h39l5 1-3 2h-27l-11-1-323-1-1-1v-169l1-53 1-2h22l11 7 4 5 12 8 16 7 15 4 8 1h12l9-1 11-3 5-2 10-3 9-5h2v-2l5-4 5-2 9-10 5-6 3-3 8-15 2-2 2-8 1-3 4-15 1-14-2-16-4-14-7-14v-3h-2l-5-9-6-8-7-7h-2l-4-4-6-4-15-7-13-4-12-2 2-2-24-1v3l-8-1-1 2-4 1-14 5-10 5-13 9-9 7-10 2h-16v-191l3-1 188-1v-24l-9-10-10-14-7-16-4-15-1-6v-21l3-15 5-14 9-16 11-13 9-8 14-9 14-6z" fill="#47CAE5"/>
<path transform="translate(1101,96)" d="m0 0 8 1 41 14 32 13 31 15 23 13 18 11 22 15 21 16 11 9 14 12 13 12 26 26 7 8 12 14 11 14 12 16 16 24 15 25 14 26 14 31 10 26 10 30 9 35 6 31 4 30 2 23 1 20v44l-1 20-5 39-8 39-4 15-12-3-180-48-25-7-1-4 3-7 3-13 5-4 10-7 11-9 11-14 8-15 4-11 4-22-1-16-4-18-7-16-9-14-10-11-15-11-15-7-13-4-11-2h-19l-16 3-14 5-13 7-10 8-6 5-8 10-8 13-6 14-3 13-2 18 3 21 5 15 7 14-1 9-3 10-2 6-8-1-64-17-112-30-2-1 1-9 17-64 22-82 8-31-10-2-8-2h-7l-14 7-13 4-19 3h-10l-19-3-16-6-14-8-10-8-9-9-10-14-7-15-5-17-1-6v-21l5-21 7-16 8-12 12-13 10-8 14-8 13-5 13-3 9-1h11l15 2 16 5 14 7 11 8 9 8 11 14 4 7 5 3 15 4h4l13-48 11-42 17-63 15-55z" fill="#EE5751"/>
<path transform="translate(684,288)" d="m0 0h20v223l-6 1h-18l-5-3-8-8-14-9-11-5-12-4-12-2h-22l-15 3-15 6-11 6-14 11-9 10-8 13-5 10-5 17-2 19 2 18 4 15 4 10 7 11 7 9 2 4h2v2l4 2 10 8 17 9 17 5 13 2h13l18-3 16-6 14-8 9-7 7-7h25l1 1v190l-1 1-178 1-12 1v11l2 13 2 5h2l4 7v2l3 1 2 4 4 4 2 4v6l3 1 1 5 3 10v9h2l1 8v13l-3 16-5 14-7 14-9 10-1 2h-2l-2 4-17 13-17 8-17 5-4 1h-23l-18-4-18-8-9-5-11-10-5-5-8-9-7-12-6-17-3-13v-27l5-18 8-16 8-12 8-9 2-6v-19l-1-1h-221l-1-41 4-36 6-35 10-40 12-37 13-32 11-24 12-22 13-22 16-24 13-18 18-22 12-14 8-8 2-3h2l2-4 7-7 8-7 3-3h2v-2l8-7 14-12 15-12 19-14 21-14 18-11 21-12 24-12 28-12 24-9 32-10 38-9 37-6 31-3z" fill="#FDCC09"/>
<path transform="translate(1189,1288)" d="m0 0 7 6 4 4 5 12v5l-7 2-3 18h-2l-2 5-4 7v27l-3 38v36l1 17 1 3 5-1 5-4 6-8 3-3h2l2-4h2l2-4 8-7 12-11 17-12 11-7 10-6 11-5 19-8 12-4 15-4 11-2 9-2h52l31 6 25 8 15 7v2l6 2 6 3 8 3 4 4 15 10v2l5 2 6 3 14 15 8 8 6 7v2h2l7 11 6 5 3 6 6 9 8 16 8 21 5 21 3 17 2 12 1 26-1 24-5 25-9 27-8 18-12 23-11 16-12 14-9 10-8 7-17 17h-2l-1 5 1 1 8 1h49l19-3 34-5 28-3h4v-2l9-3 1-6 5-1 11 8 2 1v2h2l1 9-4 6-12 11-10 11-7 8-6 7-8 7-4 5-7 6-5 6h-2v2h-2v2h-2v2h-2v2l-8 7-3 3h-2l-2 4-11 9-3 4h-2l-2 5-3 5-6 2-6-1-6-5-6-11-11-11-5-4-9-7-5-4-6-1v2l-29 13-17 6h-2v71l-11 1h-164l-1-1-1-70-27-11-16-7-4-1-6 6h-2l-2 4-39 39-4-1-123-123 1-3 8-7 41-41-1-4-10-22-8-21-71-1-2-21 1-155 66-1h6l7-19 8-19 2-5v-7l-4-2-8-7-7-8-9-9-7-8-13-13 3-5 24-24 8-7 5-6 8-7 51-51 5-6 8-7zm177 152-26 4-23 7-17 8-17 11-10 8-10 9-7 7-13 17-10 18-7 16-6 20-3 20-1 19 4 29 5 18 8 19 10 18 11 14 11 12 10 9 11 8 13 8 19 9 15 5 10 3 24 3 12 1 5-1h7l19-3 20-6 16-7 15-8 14-10 13-12 10-10 12-16 10-18 7-17 5-18 4-31-1-17-4-24-5-16-7-17-9-16-11-15-11-12-12-11-13-9-14-8-10-5-20-7-12-3-22-3z" fill="#FDCC09"/>
<path transform="translate(384,1632)" d="m0 0h639v38l-1 1-3 22-7 27-9 27-11 25-11 21-10 16-13 18-9 11-9 10-7 8-11 11-8 7-16 13-20 14-21 12-17 9-24 10-25 8-25 6-27 4-27 2h-17l-29-2-30-5-27-7-20-7-23-10-23-12-23-14-17-13-13-11-13-12-9-9-9-11-11-13-14-20-14-24-12-25-10-27-7-26-4-21-3-23z" fill="#D1D8DB"/>
<path transform="translate(1289,1248)" d="m0 0h174l1 1v71l11 3 23 10 13 6 8-7 45-45 2-7 1 2h4l2 5v16h-2l1 2 12 5 2 1 8-1v2h-7l97 97 3 5-50 50 2 5 9 21 8 21 71 1 1 1v174l-2 1-70 1-10 26-9 20 7 8 22 22 8 7 13 13-1 4-123 123-7-6-44-44v-3h6l12 10 5 3v2l4 2 10 10 7 12 6 4 10-1 2-5 3-5h2l2-4 10-9 8-7 3-3h2l2-4h2v-2h2v-2h2v-2h2v-2h2l2-4h2l2-4h2l2-4h2l2-4 8-8h2l2-4h2l2-4 9-10 7-8 9-9 5-4 2-4v-9h-2v-2l-5-2-8-6h-5v6l-4 2-6 1v2l-14 2-33 4-38 6h-49l-8-1-2-4 9-9h2l2-4 10-10 8-7 10-11 11-14 9-14 14-27 9-23 6-20 4-21 1-28-1-22-4-24-4-19-7-21-9-19-7-12-3-5-5-5-8-11v-2h-2l-9-11-15-15-5-6-5-2-5-3-4-4-14-9-3-3-11-4-7-4-1-2-19-8-25-7-26-5h-52l-12 3-16 3-14 4-12 5-15 6-22 12-11 8-14 10-16 15-8 7-5 5-9 11-4 3-5-1-1-3-1-17v-38l3-36v-27l5-9 2-3h2v-7l3-13 2 1 4-1v-5l-4-9 1-2 10 10 7 8 21 21 6-1 20-9 21-8 1-1 1-70z" fill="#FDE30D"/>
<path transform="translate(1122,102)" d="m0 0 11 3 30 11 23 10 25 12 25 14 18 11 22 15 21 16 11 9 14 12 13 12 26 26 7 8 12 14 11 14 12 16 16 24 15 25 14 26 14 31 10 26 10 30 9 35 6 31 4 30 2 23v10l-1 5-5-1-5-3-9-3-12-6-12-5-19-10-16-8-9-5-11-6v-2l-7-2-9-6-8-6-6-3-4-3v-2l-6-2-11-9-9-6-6-5v-2l-4-2-6-4v-2h-2v-2l-4-2-10-9-1-3-4-2-36-36-7-8-9-12-5-6-5-5-7-11-4-4-12-18-7-10-8-13-1-3-2-1-4-8-3-5-8-15-19-38-8-18-6-15-7-19-4-13-7-25-4-18-5-26-6-39v-10z" fill="#FC7674"/>
<path transform="translate(1163,1114)" d="m0 0h5l-2 6-12 19-14 19-10 13-11 13-12 14-14 15-15 15-8 7-10 9-11 9-15 12-9 7-1 104h39l5 1-3 2h-27l-11-1-323-1-1-1v-169l1-53 1-2h22l11 7 4 5 12 8 16 7 15 4 8 1h12l9-1 11-3 5-2 10-3 9-5h2v-2l5-4 5-2 7-8 3-1 4-5 7-5 6 3 25 2 20 1h61l38-3 16-2 26-4 26-5 32-8 9-3 17-6 4-2z" fill="#00B3D8"/>
<path transform="translate(1348,1376)" d="m0 0h52l31 6 25 8 15 7v2l6 2 6 3 8 3 4 4 15 10v2l5 2 6 3 14 15 8 8 6 7v2h2l7 11 6 8 3 6 8 14 6 15 6 16 5 18 3 14 3 27v25l-5 35-6 21-8 21-8 15-6 11-3 4-3 5-9 12-2 3h-2l-2 4-13 14-8 7-13 11h-2v2l-11 8-1 2h-2v2l-11 7-15 8-13 5-7 3-21 6-13 2-9 2-13 1h-24l-22-2-21-4-16-4-11-3-21-9-17-9-21-14v-2l-4-2-9-7-13-12-2-4h-2l-5-6v-2h-2l-10-13-6-9-5-7-6-11-8-16-8-21-6-24-3-19-1-17 2-32 5-25 7-23 4-12 8-18 6-12h2l1-4 9-10 4-6 10-11 8-10 7-6 8-8h2v-2l16-12 14-9 13-7 4-4 17-7 17-6 15-4 11-2zm18 64-26 4-23 7-17 8-17 11-10 8-10 9-7 7-13 17-10 18-7 16-6 20-3 20-1 19 4 29 5 18 8 19 10 18 11 14 11 12 10 9 11 8 13 8 19 9 15 5 10 3 24 3 12 1 5-1h7l19-3 20-6 16-7 15-8 14-10 13-12 10-10 12-16 10-18 7-17 5-18 4-31-1-17-4-24-5-16-7-17-9-16-11-15-11-12-12-11-13-9-14-8-10-5-20-7-12-3-22-3z" fill="#FCB60A"/>
<path transform="translate(384,1632)" d="m0 0h639v38l-1 1-3 22-1 4h-222l-26 1-26 4-28 7-23 8-20 9-17 9-22 14-13 10-15 13-12 11-10 11-9 11-10 13-12 19-12 22-11 27-4 10-6-1-17-13-13-11-13-12-9-9-9-11-11-13-14-20-14-24-12-25-10-27-7-26-4-21-3-23z" fill="#969A9B"/>
<path transform="translate(316,451)" d="m0 0h2l2 7v9l-1 11v37l2 41 2 18 2 14 2 21 3 19 5 25 2 9 5 22 4 13 5 17 7 21 7 16 6 16 9 19 9 17 8 16 6 10 7 14 11 17 9 13 16 22 14 18 12 14 8 10 8 8v2h2l7 8 1 3h2l7 8 2 4 3 1v2l4 2 3 6 1 3 4-1 3-2-2 4-6 8h-2l-2 4-17 13-17 8-17 5-4 1h-23l-18-4-18-8-9-5-11-10-5-5-8-9-7-12-6-17-3-13v-27l5-18 8-16 8-12 8-9 2-6v-19l-1-1h-221l-1-41 4-36 6-35 10-40 12-37 13-32 11-24 12-22 13-22 16-24 13-18 18-22 12-14 15-14z" fill="#FDB50A"/>
<path transform="translate(703,831)" d="m0 0 4 2h-3v191l16-1 10-2 16-12 9-6 14-6 12-3h8v-3h24l5 3 15 4 14 6 12 8 12 11 8 11 8 14 5 12 4 17 1 14-2 12-3 14-2 4-2 8-3 3-8 14-6 1v-2h-8l-31-6-17-4-18-5-13-3-11-3-9-3-13-5-26-9-24-10-11-5-17-8-19-10-14-8-12-7-13-8-27-18-14-10-16-13-25-20-4-4-2-4 5-8 6-14 4-16 1-7v-21h-2v-8l-2-3-1-7-2-2v-4l-2-1-2-8-3-5-3-3-4-5-1-5h-2l-4-6-2-6-1-8v-11l1-1 12-1z" fill="#FB7674"/>
<path transform="translate(1566,800)" d="m0 0h127l1 1v73l11 5 17 8 16 10 12 9 5 3 23-13 24-14 15-9 4 1 10 18 14 24 15 26 16 28 7 11v3l-28 16-26 15-8 5h-2l2 15 1 26-2 22v8l29 17 24 13v3l-5 1h-7l-5 4-6 3-8 2-21 6-34 7-10 2-20 3-9 1-24 1-1-5 10-14 11-18 10-24 5-18 1-13v-16l-4-24-5-15-8-15-9-14-7-9-3-2v-2l-4-2-6-5v-2l-4-2-9-6-10-6-11-5-13-4-18-4-26-1-13 1-20 6-11 5-14 7-14 10-3 1v2l-11 9-10 13-8 13-4 8-4 9-4 12-4 14-2 2-5-1-8-10-9-14-11-19-5-13-3-5-7-17-6-17-3-8-5-1-3 6h-4l-1-2v-8-3l1-5h-2l-4-10 2-4h-5l-2 6-3 4h-2l-1 4-2 3v6l-6 7h-3l-1 5h-3l1 4-3 4h-2l1 3-5 9h-3-2l2-5 13-23 14-24 16-28 6-10 4-1 21 12 26 15 15 9 4-2 16-12 16-9 17-8 7-3 1-74z" fill="#FDE30D"/>
<path transform="translate(338,1376)" d="m0 0h366l323 1 18 1h20l5-1 15 5 5 4-9 10-15 15-1 3 19 19v5l-6 2-115 1h-352l-194-1-19-2-10-4-10-6-7-6v-2l-3-1-9-13-8-16-3-9h-12l-7 2-6 3-5 3-5 5-6 5h-2l-1 4-6 2 4-6 7-8 10-7 12-6z" fill="#FCFCFC"/>
<path transform="translate(504,1503)" d="m0 0h362l67 1 103 1 17 1h20l13 4v1l-13 1h-50v120h-1l-1-64h-59l-84 1h-373l-90-1-16-2-9-3-12-7-7-6v-2h-2l-10-14-5-11-3-12 1-6 35-1z" fill="#FDFDFD"/>
<path transform="translate(1623,927)" d="m0 0 26 1 18 4 13 4 16 8 18 12v2l4 2 6 5 7 8 6 8 8 13 8 15 4 13 4 24v21l-2 12-5 17-4 9-3 3-7 14-10 13-9 11-8 10-11 8-9 6-18 8-22 6-11 1h-18l-17-2-15-4-15-5-8-4-13-8-4-3v-2l-4-1v-2l-4-2-5-5-10-11-9-13-8-14-8-24-2-13v-17l2-12 5-22 4-11 8-17 12-17 9-10 5-5 1-3 14-10 14-8 13-5 7-3 14-4zm1 65-17 4-13 7-10 9-7 8-7 14-3 11v22l4 14 5 9 7 9 10 9 16 8 12 3 12 1 17-4 16-8 10-9 7-8 6-12 3-10 1-8v-10l-2-13-5-12-7-10-7-8-10-7-10-5-18-4z" fill="#FDB60A"/>
<path transform="translate(1184,1488)" d="m0 0 4 1 1 12 7 17 5 6 2 4 6 1 4 1 2 4-4 6v8l-1 11 5 21 2 4v20l4 29 5 18 8 19 10 18 11 14 11 12 14 12 17 11 21 10 15 5 10 3 24 3 12 1 4-1 10 4 9 2 12 5 9 3 4 1v2l4-1 28 8 9 3 17 3 2 4-9 6-14 7-12 5-15 5-23 5-18 3-22 1-25-2-19-3-17-4-23-8-16-7-6-4-11-6-13-10-11-8v-2l-4-2-20-20v-2h-2l-9-12-8-11-4-8-8-12-10-21-7-20-6-29-2-21v-28l4-29 4-16 7-21 13-27z" fill="#FDA60A"/>
<path transform="translate(1508,1051)" d="m0 0 4 1 8 13 9 6 4 3v2h2v2l5 2 8 7 2 1v2h2l5 5 16 9 2 3 7 3 5 4 3 1v2l4 2 7 4 13 4 5 3 7 2 8 3 7 1 17 5 10 2 22 6 2 1 16 2 1 2-1 3-11 8-14 7-9 4-13 4-21 4-16 1-17-2-3-1v-2l-7-1-13-4-17-8-16-12-13-13-9-11-8-13-8-17-4-12-3-14-1-16v-5z" fill="#FDA60A"/>
<path transform="translate(1099,1694)" d="m0 0 5 1 4 9 3 6v3h2l3 7 3 5 2 3 2 7-1 8-4 5-8 6-10 7h-2v2l-9 7h-2v2l-6 4-1 2h-2l-1 9v3l4 1 6 7 9 7 12 11 11 12v2h2v2h2l6 7 6 5v2h2v2h2v2h2v2h2v2l4 2v2l3 1 2 4 9 8v2h2l5 6 3 2v2h2l5 8 1 7-2 2-113-113 1-3 8-7 41-41-1-4-10-22-5-13z" fill="#FEE40D"/>
<path transform="translate(244,539)" d="m0 0 1 4-3 8-7 10-5 10-2 7-1 5-2 1-3 9-5 5-2 7-1 3h-2v5l-2 3-2 7-4 8h-3l1 9-1 3h-2v9l-3 5-2 10-3 4-1 8-4 14-2 6-2 9-2 8-2 11-3 9v11l-2 10-2 4-1 12-2 16-2 4-2-4-2 1-1-10 5-37 6-31 8-31 12-37 13-32 11-24 12-22 13-22z" fill="#FDCD09"/>
<path transform="translate(1383,1123)" d="m0 0h2v9l7 10 1 4-1 2 6 3v3h2l2 6 6 8 3 9h2l4 9 6 9 7 15 2 7v7h-2l-14-24-16-28-10-17-14-24 1-4z" fill="#FDE30C"/>
<path transform="translate(1076,1423)" d="m0 0 7 6 4 4v2l3 1v2l3 1v2h2v2h2l6 7 11 11 1 7-3 9-1 5h-2l-3 9-2 3v16l-3 8-3 2h-6l-7-2-7-1-2-3 4-1h-56l1 38 1 11-1 70-1 35h-2l1-155 66-1h6l7-19 8-19 2-5v-7l-4-2-8-7-7-8-9-9-7-8-2-3z" fill="#FDE10D"/>
<path transform="translate(703,669)" d="m0 0h1v162l-1 1-178 1-12 1v11l1 10h-2l-2-11v-9l2-3 9-1 32-1h145l4-1v-150z" fill="#F89D1B"/>
<path transform="translate(1171,1306)" d="m0 0 2 1-2 4-2 2-1 5-10 10h-2v2l-8 7-24 24h-2l-2 4-3 1-1 3-8 7-9 9-7 3-7 6-5 6-2 5-2 4h-2l-2 5-1 3-3 1-4-5 7-8 20-20 8-7 5-6 8-7 51-51 5-6z" fill="#FEE30C"/>
<path transform="translate(511,359)" d="m0 0 2 1-1 3-4 1-3 7-7 2-1 4-8 4h-2l-1 3-7 3-9 3-7 2h-4v-4l-2-1h2l1-3 7-3 10-8 6-5 9-3 1-2 12-3h5z" fill="#FEE30C"/>
<path transform="translate(1436,880)" d="m0 0 4 2-2 7-1 8-2 2-3 7-3 3h-6l-2 6-3 4h-2l-1 4-2 3v6l-6 7h-3l-1 5h-3l1 4-3 4h-2l1 3-5 9h-3-2l2-5 13-23 14-24 16-28z" fill="#FEE30C"/>
<path transform="translate(161,827)" d="m0 0 1 2 12 1 16-1 142 1 23-1 13 1h13l5 3-1 23-4 6-2 1 2-4 2-6v-19l-1-1h-221z" fill="#FDA60A"/>
<path transform="translate(1326,1445)" d="m0 0h10l-3 2-21 7-17 9-12 8-10 8-10 9-10 11-11 15-1-4 2-5 8-11 7-8 7-7 8-7 12-10 18-10 7-3z" fill="#FECF09"/>
<path transform="translate(1023,1359)" d="m0 0h1v17h39l5 1-3 2h-27l-11-1-323-1-1-1v-10h1l1 9 318 1z" fill="#4FC9E3"/>
<path transform="translate(1620,1306)" d="m0 0h39l17 2h18v3l-2 1h-98v-1l18-1 1-3z" fill="#FCBC0B"/>
<path transform="translate(1237,1859)" d="m0 0h10v2h2v2l6 1 5 5-5-1-12-6-4 1-5 5h-2l-2 4-39 39-4-1-4-5 12-2 7-10 7-8 10-11 3-4h2l2-4z" fill="#FEE40D"/>
<path transform="translate(1348,1376)" d="m0 0h52l31 6 25 8 7 3-4 1-17-6-25-6-27-4h-34l-22 4-13 3-18 5-15 6-9 4-3-1 12-6 17-6 8-3 15-4 11-2z" fill="#FECD09"/>
<path transform="translate(1498,1199)" d="m0 0 5 1v4l-21 12-24 14-14 8-5 1-3-5 1-2h12l6-5 5-2 2-4 19-10 9-7z" fill="#FEE30C"/>
<path transform="translate(1728,971)" d="m0 0 5 4 9 14 9 16 4 11 3 12 3 18v21l-2 12-5 17-4 9-1-3 6-18 3-18v-13l-4-24-3-12-4-11-6-13-7-12-6-8z" fill="#FECD09"/>
<path transform="translate(1073,1511)" d="m0 0h10v1l-9 1h-50l1 38 1 11-1 70-1 35h-2l1-155z" fill="#FEE40D"/>
<path transform="translate(1532,1628)" d="m0 0 3 1 1 9-3 1v2h-2l1 11-4 3v6l-4 7-4 9-4 7-1 3-5 5-1 3-4 1-2 4-15 15-2-1 11-11 12-16 10-18 7-17 5-18z" fill="#FDCF09"/>
<path transform="translate(436,398)" d="m0 0 6 1-5 9-5 2-3 4-1 2-5 1h-3l-6 2-4 2-3 1-2-4 6-3 3-6 7-6 6-1 5 2 1 2v-2l-1-2h2z" fill="#FEE30C"/>
<path transform="translate(1865,1158)" d="m0 0 2 1-14 25-10 17-14 24h-3l1-5 5-10h2l2-6 4-6 3-7 4-6 6-8 5-12 6-5z" fill="#FEE30C"/>
<path transform="translate(1256,1704)" d="m0 0 13 13 14 11 8 5-1 4-4 1-6-3-6-11-4-2h-3l-10-7-4-5v-4z" fill="#FDB80A"/>
<path transform="translate(661,655)" d="m0 0 2 1-1 5-4 1h-2l-2 4h-5l-5 5h-6l-4 4h-6l-7-2-7-1v-1l18-3 16-6z" fill="#FEE30C"/>
<path transform="translate(1076,1423)" d="m0 0 7 6 4 4v2l3 1v2l3 1v2h2v2h2l6 7 11 11 1 7-3 9-1 5h-2l-3 9-3 1 3-9 6-15v-7l-4-2-8-7-7-8-9-9-7-8-2-3z" fill="#FEE30C"/>
<path transform="translate(1436,880)" d="m0 0 4 2-2 7-1 8-2 2-3 7-4 3 1-6h-2l-1-8 8-14z" fill="#FECE09"/>
<path transform="translate(1504,1859)" d="m0 0 5 2-4 3-22 10-17 6h-2l-1 8h-2v-7l4-2 1-2 4-2 7-4 10-4 10-3v-2h3v-2z" fill="#FEE40D"/>
<path transform="translate(1502,1502)" d="m0 0 4 1 1 4h2l6 7v2h2l4 8 2 5-1 5 4 2v2h2l-1 5h-3l-9-20-10-16z" fill="#FED009"/>
<path transform="translate(1440,1088)" d="m0 0 2 2v3l2 1-5 5h-2l-1 3-10 3h-5l-2-3 20-11z" fill="#FEE40D"/>
<path transform="translate(1678,1684)" d="m0 0h48l-1 3h-62l1-2h8z" fill="#FDC709"/>
<path transform="translate(633,292)" d="m0 0h7l-2 5-4 1-4-1h-15v3l-7 1-12-2v-1z" fill="#FEE30C"/>
<path transform="translate(1633,928)" d="m0 0h16l18 4 13 4 16 8 18 12-1 2-17-11-14-7-17-6-19-4-13-1z" fill="#FECD09"/>
<path transform="translate(382,997)" d="m0 0 4 2 9 6v2l5 1 2 1v2l5 1 18 7 15 3 20 1v1h-23l-18-4-18-8-9-5-10-9z" fill="#FDA60A"/>
<path transform="translate(1692,1061)" d="m0 0 1 4h2v9l-3 2-1 7-6 8-2 5-4 3-4 6h-5l6-7 7-9 5-10 3-10z" fill="#FDD009"/>
<path transform="translate(1039,1684)" d="m0 0 42 1 4 2-52 1-3-2 8-1z" fill="#FDB50A"/>
<path transform="translate(1478,1475)" d="m0 0 6 1 3 3 3 1 1 4h3v3l2 1v5l-4-2-14-14z" fill="#FECF09"/>
<path transform="translate(679,640)" d="m0 0h24v6l-2 1-15-3v-2l-7-1z" fill="#FCCF10"/>
<path transform="translate(324,1509)" d="m0 0 2 1-3 4-1 2-7 4h-2l-1 2-3 1-1 2-5 5-4 2 3-5 7-8 13-9z" fill="#FDFDFD"/>
<path transform="translate(587,300)" d="m0 0h5l-2 4-4 2-10-1v2l-6 3-4-1v-4z" fill="#FEE40D"/>
<path transform="translate(1244,832)" d="m0 0 4 1v13l-1 21-2 4-1-32 1-4-4-2z" fill="#16B7D9"/>
<path transform="translate(575,666)" d="m0 0 18 4 8 1v1l-6 2-5 1-4-1-3-1v-2l-4 1-1-2-4-1z" fill="#FEE40D"/>
<path transform="translate(1024,1376)" d="m0 0h39l5 1-3 2h-27l-11-1z" fill="#BACCD1"/>
<path transform="translate(571,485)" d="m0 0 4 1-17 8-8 6-2-1 13-13z" fill="#FEE40D"/>
<path transform="translate(645,487)" d="m0 0 9 2 10 3 4 5-1 4-14-9-8-4z" fill="#FEE40D"/>
<path transform="translate(1407,995)" d="m0 0 4 2v2h2l5 5-1 3-6-2-8-5 2-1 1-3z" fill="#FEE40D"/>
<path transform="translate(1623,927)" d="m0 0 7 1v1l-14 1-27 6 1-2 20-6z" fill="#FECD09"/>
<path transform="translate(511,578)" d="m0 0h1l1 14-3 9-1-2-2-15 3-3z" fill="#FEE40D"/>
<path transform="translate(1460,1461)" d="m0 0 5 1 6 4 1 3-1 1 2 1-1 2-15-10z" fill="#FECF09"/>
<path transform="translate(699,289)" d="m0 0h4l-1 7-6-1-7-4v-1z" fill="#FEE30C"/>
<path transform="translate(1595,999)" d="m0 0h6l-5 4-8 6-5 4 1-5 7-7z" fill="#FED009"/>
<path transform="translate(1525,1545)" d="m0 0 6 2 1 7-1 3 3 2v3h-4z" fill="#FED009"/>
<path transform="translate(1385,984)" d="m0 0h4l4 5 2 1v5l-11-6z" fill="#FEE20C"/>
<path transform="translate(1189,1288)" d="m0 0 7 6 3 4-4-1-5-2-6-1z" fill="#FEE40D"/>
<path transform="translate(684,288)" d="m0 0h6v1h-5l-1 3-20-1v-2z" fill="#FEDF0C"/>
<path transform="translate(1511,1203)" d="m0 0 7 1 1 4-2 3-4-2-3-3z" fill="#FEE40D"/>
<path transform="translate(400,380)" d="m0 0 2 3-1 2-2-1v4h-3l-1 3-3-4 5-5z" fill="#FEE20C"/>
<path transform="translate(678,640)" d="m0 0 8 2-5 4h-8z" fill="#FEE20C"/>
<path transform="translate(1872,1143)" d="m0 0 3 1-5 10-3-4 3-6z" fill="#FEE40D"/>
<path transform="translate(1380,974)" d="m0 0h1v13l-5-3 1-5z" fill="#FDE00C"/>
<path transform="translate(532,315)" d="m0 0 2 1v4l-6 2-5-4z" fill="#FEE20C"/>
<path transform="translate(1521,1533)" d="m0 0 5 3v2h2l-1 5h-3l-3-7z" fill="#FDCE09"/>
<path transform="translate(1485,1715)" d="m0 0 1 3-7 5-1 2h-2l1 3h-6l5-5z" fill="#FED009"/>
<path transform="translate(1661,1110)" d="m0 0 2 1-5 4-9 4h-2v-3l12-5z" fill="#FDD20A"/>
<path transform="translate(446,393)" d="m0 0 4 1-2 5-2 2-4-4z" fill="#FEE40D"/>
<path transform="translate(1277,1872)" d="m0 0 5 2v4l-10-3-2-2z" fill="#FEE40D"/>
<path transform="translate(477,337)" d="m0 0h2v2l-6 2-1 3-5 1-3-2z" fill="#FEE30C"/>
<path transform="translate(541,312)" d="m0 0h4l1 4-5 2-3-3v-2z" fill="#FEE40D"/>
<path transform="translate(555,308)" d="m0 0h3v4l-5 1-5-2 4-2z" fill="#FEE40D"/>
<path transform="translate(705 1e3)" d="m0 0h2l1 15-2 2-1-3z" fill="#00B3D9"/>
<path transform="translate(1331,1752)" d="m0 0 12 3v1l-8 1-4-3z" fill="#FDBC0A"/>
<path transform="translate(1416,1104)" d="m0 0 2 1v3l-7 2-2-2z" fill="#FEE40D"/>
<path transform="translate(268,505)" d="m0 0v3l-5 8-4 3 2-5z" fill="#FED109"/>
</svg>
