<?xml version="1.0" encoding="UTF-8"?>
<svg version="1.1" viewBox="0 0 2000 2000" width="500" height="500" xmlns="http://www.w3.org/2000/svg">
<path transform="translate(0)" d="m0 0h2e3v2e3h-2e3z" fill="#012A24"/>
<path transform="translate(1074,497)" d="m0 0h9l22 8 20 9 6 4 6 10 1 3v9l-5 31-1 9v13l6 11 10 14 8 8v2l4 2 10 9 14 8 9 4h19l6-2 12-2 11-3h13l7 3 7 8 8 16 10 27 1 7-4 10-4 5-11 8-14 8-11 8-7 8-4 8-3 12v46l3 14 6 12 9 8 13 8 11 6 11 9 5 8v13l-4 12-5 11-5 12-6 9-8 7-8 2-13-1-12-3-20-4h-8l-10 3-11 6-4 2-1 3-8 7-19 19-9 14-3 7-1 5v13l2 8 5 17 1 6v14l-3 8-6 5-16 8-14 6-11 4-5 1h-7l-10-3-7-8-16-26-9-10-10-6-7-3-8-1-30-1-13-5-8-6-7-8-4-8-1-5v-17l3-9 5-8 8-7 10-5 6-1 31-2 1-1 16-2 16-5 15-7 9-5 11-7 13-10 10-9 10-10 13-18 10-17 5-13 3-7 3-13 1-2 1-11v-31l-4-23-2-9-7-21-8-17-10-16-13-17-13-13-18-13-18-10-20-8-24-6-14-2-11-5-6-4-7-7-4-7-2-10v-12l2-9 4-8h2l2-4 6-5 8-4 16-4 14-4 11-6 11-11 10-18 7-11 7-6z" fill="#B7F8FB"/>
<path transform="translate(968,476)" d="m0 0h19l9 3 5 4 5 10 1 3v8l-5 9-8 6-13 4-23 2-25 5-16 5-16 6-17 9-19 12-17 13-15 14-8 8-12 16-8 11-12 22-10 25-6 23-4 24v45l5 25 5 17 7 17 14 29 12 24 15 33 9 21 10 26 11 30 15 48 5 23 4 24 4 8 3 3 92 1 9 3 8 6 5 8 1 3v8l-5 10-9 7-6 2h-100l-16-5-12-7-9-8-7-11-4-13-9-48-8-30-8-23-13-33-7-17-6-13-16-36-21-43-7-16-7-18-6-23-3-16-3-25v-33l4-34 5-21 5-16 8-20 8-16 9-16 10-14 10-13 7-8 8-8 6-7h2l1-3 8-7 9-8 16-11 11-7 19-11 20-9 14-5 20-6 22-3 5-1z" fill="#B7F8FB"/>
<path transform="translate(949,676)" d="m0 0 7 1 5 4 6 8 5 6 6 4 13 1 10-2 8-5 6-7 6-8 6-2 9 1 10 6 5 5v11l-2 5 1 9 4 9 2 5 4 2 9 6 4 1h26l5 6 3 7 3 11-1 5-7 6-6 4-7 10-1 6v15l4 8 8 7 8 6 3 4v8l-5 13-8 7h-6l-3-2h-15l-9 4-8 7-4 5-2 7v13l1 5v7l-6 7-8 4-7 3-5-1-6-5-7-10-7-6-7-2h-15l-8 3-7 5-9 12-6 5-16-6-6-4-4-5 2-10 1-3v-12l-6-9-5-6-8-6-4-2h-11l-8 3h-6l-7-6-5-11-2-5v-5l7-8 11-9 4-6 1-5v-14l-2-8-5-7-11-7-5-6-1-4 5-14 6-8 3-1 18 1 13-3 9-6 5-6 3-6 1-1v-7l-3-10v-8l3-5 8-5z" fill="#F9FDFD"/>
<path transform="translate(989,731)" d="m0 0 14 1 8 3 7 3 10 6 8 6 9 12 7 14 2 9 1 9 1 5-1 2-2 13-2 9-4 8-6 8-7 8-14 9-9 4-16 2h-10l-15-2-16-8-10-8-9-11-7-14-3-18-1-4 1-2 2-15 5-13 6-9 9-10 11-8 8-4 13-4z" fill="#012A24"/>
<path transform="translate(982,1179)" d="m0 0h33l98 1 6 3 6 7 3 9-1 9-4 8-9 7-4 1-17 1h-217l-14-1-7-3-7-8-2-8v-7l3-9 5-5 5-4z" fill="#FDFDFD"/>
<path transform="translate(928,1476)" d="m0 0h19l6 3 6 5 2 3h2l6-7 4-3 7-1h17l8 3 7 7 3 6 3 14v62h-22l-2-3-1-59-3-8-4-2h-11l-6 5-2 11-1 54-3 2h-19l-2-1-1-59-3-11-4-1h-12l-5 5-2 9-1 9-1 48-1 1h-22l-1-2v-80l1-9h22l1 1 1 7 11-8z" fill="#F5FCFC"/>
<path transform="translate(510,1444)" d="m0 0h24l4 9 12 35 16 45 11 31-1 4h-22l-4-5-4-12-3-7h-46l-2 11-2 4-1 7-2 2h-25l-1-3 6-14 8-24 7-20 15-42 6-17z" fill="#F8FCFD"/>
<path transform="translate(1185,1442)" d="m0 0h16l14 3 11 6 9 8 5 8 4 11-1 5h-22l-5-5-3-7-4-3-6-3-5-1h-9l-10 4h-2l-1 4v9l4 5 12 5 10 2 18 5 16 8 7 8 4 9 1 11-2 10-5 10-5 6-11 7-13 4h-23l-15-4-13-8-9-10-4-9-3-12h26l6 11 7 6 4 2 7 1h12l9-3 3-2 2-7-1-9-5-5-14-5-12-2-9-3-16-6-7-6-5-8-3-13 3-14 3-6 6-7 10-6 5-2z" fill="#F8FDFD"/>
<path transform="translate(808,1476)" d="m0 0h23l10 3 12 8 7 9 4 10 3 12v9l-4 15-5 10-11 11-11 5-10 3h-14l-13-4-11-7-8-9-5-11-2-6-1-7v-10l2-10 4-10 8-10 8-6 8-4z" fill="#F8FDFD"/>
<path transform="translate(924,1260)" d="m0 0h124l8 4 7 8 1 3v16l-3 6-8 7-9 2h-116l-11-3-7-7-2-4v-17l4-8 8-6z" fill="#F6FCFD"/>
<path transform="translate(1303,1476)" d="m0 0h24l11 4 10 7 7 10 4 10 1 5v15l-1 1h-66l1 4 4 8 7 7 9 2 9-1 5-2 8-9 2-1h20l1 3-7 14-7 8-14 7-10 3h-13l-14-4-11-8-7-8-5-10-2-5-1-6v-10l2-12 5-12 9-11 7-5 7-3z" fill="#F7FCFD"/>
<path transform="translate(1073,1476)" d="m0 0h23l9 3 9 7 5 7 4 12v62l-1 1h-21l-1-1v-8l-8 7-10 4-4 1h-11l-13-5-8-7-4-8-1-3v-10l4-9 5-6 7-4 6-3 9-2 1-1 17-2 5-2h5l-3-7-2-5-8-2-12 1-3 3-5 9h-18l-4-1 1-7 4-8 9-10 10-5z" fill="#F8FCFD"/>
<path transform="translate(675,388)" d="m0 0h11l10 7 70 70 5 8 1 9-3 7-8 8-8 3-7-1-10-7-13-12-55-55-8-13v-8l5-9 5-4z" fill="#FAFDFD"/>
<path transform="translate(1316,694)" d="m0 0h104l9 3 6 4 4 6 1 3v9l-3 6-6 6-11 3h-101l-10-3-6-5-3-5v-14l4-6 6-5z" fill="#FCFDFD"/>
<path transform="translate(1289,388)" d="m0 0h9l8 4 5 7 1 4v11l-6 10-68 68-13 8-6 1-10-7-5-6-2-10 3-9 22-24 24-24 8-7 15-15h2l2-4 8-6z" fill="#FAFDFD"/>
<path transform="translate(981,280)" d="m0 0h12l5 3 5 6 3 9v16l1 2v29l-1 55-3 11-9 8-9 1-8-3-5-4-4-7-2-8-1-76v-10l2-6 1-14 4-6 6-5z" fill="#F7FCFD"/>
<path transform="translate(615,694)" d="m0 0h35l17 3 6 7 2 6-1 8-4 9-6 4-5 1h-110l-7-3-6-7-2-6 1-9 3-6 7-5 6-1h46z" fill="#F8FDFD"/>
<path transform="translate(598,1476)" d="m0 0 21 1 1 3v53l2 10 5 5 4 2h8l9-3 2-5 2-9 1-56 3-1h18l2 2v89l-1 1h-22l-1-1v-6l-10 7-7 3-8 1-13-4-6-4-7-8-4-10-1-9v-57z" fill="#F6FCFC"/>
<path transform="translate(1450,1476)" d="m0 0 23 1 4 9 10 30 3 10 2 2 4-10 10-30 3-10 1-1h25l-3 9-7 19-8 21-7 20-6 16-2 5-1 1h-18l-3-5-6-16-8-22-10-27-7-21z" fill="#F7FCFD"/>
<path transform="translate(713,1444)" d="m0 0h17l5 1v32h16v18l-3 1h-12v52l15 1 1 16-2 3h-22l-8-2-4-5-4-4-1-62-10 1-3-1-1-2v-13l1-3 13-1 1-31z" fill="#F7FCFD"/>
<path transform="translate(1386,1476)" d="m0 0 21 1 1 1 1 7 10-8 16-1 1 2v17l-1 2-17 4-5 5-4 11-1 50-1 1h-21l-2-2 1-89z" fill="#F6FCFC"/>
<path transform="translate(765,597)" d="m0 0 1 3-10 17-10 23-9 26-5 21-3 27-1 15v14l1 19 4 29 7 27 8 20 8 18 8 16 13 27 8 18 9 21 10 23 12 30 10 30 7 27 5 24 4 24 5 13 6 8 8 8 9 5 6 3 14 3 99-1 6-3 5-5 3-8v-9l-3-6-3-3-6-3-6-2-85-1-9-2-6-7-2-4-4-20-2-15-2-6-2-11-2-5v-5l2 3 6 22 4 21 3 17 6 8 92 1 9 3 8 6 5 8 1 3v8l-5 10-9 7-6 2h-100l-16-5-12-7-9-8-7-11-4-13-9-48-8-30-8-23-13-33-7-17-6-13-16-36-21-43-7-16-7-18-6-23-3-16-3-25v-33l4-34 5-21 5-16 8-20 8-16 9-16z" fill="#99E5EA"/>
<path transform="translate(814,1495)" d="m0 0h10l8 4 6 7 3 7v19l-6 12-5 4-7 2-12-1-8-6-5-8-2-6v-13l4-10 7-8z" fill="#012A24"/>
<path transform="translate(968,476)" d="m0 0h19l9 3 5 4 5 10 1 3v8l-5 9-8 6-13 4-23 2-25 5-16 5-16 6-17 9-19 12-17 13-15 14-8 8-12 16-8 11-12 22-10 25-6 23-4 24v45l5 25 5 17 7 17 14 29 12 24 15 33 9 21 10 26 11 30 10 32-1 3-3-7-3-10-5-15-3-10-6-16-10-26-7-17-11-25-12-26-16-32-10-21-5-13-4-14-3-15-1-2-1-10v-45l2-12 1-2 2-13 4-16 6-16 14-28 8-14h2l2-4 6-9 4-5 5-5 3-1 1-3 8-7 7-7 8-7 27-18 11-7 9-4h3v-2l5-2 7-2 8-3 16-4 13-3 11-2 28-3 8-5h2l1-5 1-12-2-6-2-5-6-2-7-3h-17l-33 4-8 2-13 2-4 2-9 2-21 9-16 7-15 9-4 1 4-4 21-12 20-9 14-5 20-6 22-3 5-1z" fill="#99E5EA"/>
<path transform="translate(1431,1640)" d="m0 0h13l9 3 6 4 5 6 2 3v4l-9-1-9-8-5-2h-11l-8 4-6 7-2 7v12l3 7 4 5 7 4 4 1h7l8-3 5-5 4-8 1-3h-23l-2-1v-6l2-1h31l1 1v12l-6 12-7 6-10 4h-15l-11-4-7-6-6-12-1-3v-13l4-10 6-8 9-6z" fill="#B5F7FA"/>
<path transform="translate(1292,1640)" d="m0 0h13l9 3 8 6 6 9 3 9v9l-3 11-6 9-5 4-10 4h-17l-10-4-5-4-7-11-2-10v-7l3-11 7-9 9-6zm3 7-8 3-6 5-5 10v15l4 8 8 7 6 2h8l8-3 7-6 3-6 1-13-2-9-6-8-8-4z" fill="#B5F7FA"/>
<path transform="translate(1048,1640)" d="m0 0h13l9 3 8 6 6 9 3 9v10l-3 10-6 9-5 4-10 4h-17l-10-4-5-4-6-9-3-12 1-11 3-8 5-7 8-6zm3 7-8 3-5 4-5 8-1 3v15l4 8 8 7 6 2h8l8-3 7-6 3-6 1-12-2-10-6-8-8-4z" fill="#B4F6F9"/>
<path transform="translate(897,1640)" d="m0 0 6 1 6 7 26 39 1-46 1-1 7 1v63h-6l-5-4-28-42h-1l-1 46h-6l-2-1-1-7 1-53z" fill="#B2F5F8"/>
<path transform="translate(765,1640)" d="m0 0 8 1 1 1v26h30v-22l1-6 9 1 1 41v17l-1 5h-8l-1-1-1-27h-29l-1 25-2 3h-7l-1-2v-61z" fill="#B4F6F9"/>
<path transform="translate(649,1640)" d="m0 0h15l9 3 9 8 3 5v3l-5 1-5-2-2-4-4-2-7-3h-12l-9 5-4 6-2 9v8l1 7 5 7 7 4 4 1h8l7-2 10-9 5-1 3 3-3 6-5 5-8 5-4 1h-17l-10-4-6-5-6-10-2-8v-10l3-10 5-8 9-6z" fill="#B3F5F9"/>
<path transform="translate(513,1640)" d="m0 0h33l2 1v6l-2 1h-22l-1 20h13l9 1 1 1v5l-22 1-1 20 25 1v6l-4 1h-30l-1-1z" fill="#B4F6F9"/>
<path transform="translate(1541,1640)" d="m0 0h8l4 5 11 23v2l3-3 11-23 4-4h7l-1 6-16 32-2 26h-8l-2-2v-20l-2-6-17-33z" fill="#B3F5F9"/>
<path transform="translate(408,1640)" d="m0 0 28 1 1 1v5l-9 1-8-1v53l-1 4h-6l-2-3v-54h-17l-2-4 1-2z" fill="#AEF3F6"/>
<path transform="translate(521,1474)" d="m0 0 2 1 8 27 6 19h-31l4-16 8-24z" fill="#012A24"/>
<path transform="translate(1018,553)" d="m0 0 3 1-11 4-9 2-11 3-8 4-7 8-4 7-1 8v13l3 10 6 8 7 6 9 4 7 2 13 2 16 4 21 8 16 8 14 9 11 9 15 15 11 14 8 13 8 16 7 18 5 19 3 18 1 13v21l-2 14-5 16-4 11-3 6-1-3 4-10 3-7 3-13 1-2 1-11v-31l-4-23-2-9-7-21-8-17-10-16-13-17-13-13-18-13-18-10-20-8-24-6-14-2-11-5-6-4-7-7-4-7-2-10v-12l2-9 4-8h2l2-4 6-5 8-4 16-4z" fill="#99E5EA"/>
<path transform="translate(1165,1640)" d="m0 0 7 1 1 55 21 1 2 5-5 2h-26l-1-1v-62z" fill="#ACF1F5"/>
<path transform="translate(1095,1527)" d="m0 0 5 1v7l-5 9-6 5-7 3h-9l-6-4-3-4 1-5 8-7z" fill="#012A24"/>
<path transform="translate(982,1179)" d="m0 0h33l98 1v1l-87 2h-111l-41-1-15-1v-1z" fill="#AAF0F4"/>
<path transform="translate(1431,1640)" d="m0 0h13l9 3 6 4 5 6 2 3v4l-9-1-9-8-5-2h-11l-8 4-6 7-1-4 5-6h2v-4l-4 1-3 3h-2l-1 4h-2l-1 4-4 10v8l5 13 7 8 7 4-3 1-9-6-6-9-3-8v-13l4-10 6-8 9-6z" fill="#B4F6FA"/>
<path transform="translate(1312,1494)" d="m0 0 12 1 5 3 7 8v4h-31l-11-1 2-5 6-7 4-2z" fill="#012A24"/>
<path transform="translate(1061,1641)" d="m0 0 7 1 9 6 6 8 4 11v10l-3 10-6 9-5 4-6 3-4-1 10-5 8-10 1-4v-13h-2l-2 11-2 1v-12l-2-10-5-7-8-4-10-1-8 3-5 5-6 9 1-7 5-7 8-4 4-1 16-1v-2l-5-1z" fill="#99E5EA"/>
<path transform="translate(858,1222)" d="m0 0h132l120 1v1l-17 1h-217l-14-1z" fill="#A6EDF1"/>
<path transform="translate(1074,497)" d="m0 0h9l22 8 20 9 6 4 6 10 1 3v9l-5 31-2 22-2-1 1-17 2-16 2-13v-19l-5-6-8-5-19-8-14-5-9-2h-8l-6 3h-3l5-4z" fill="#99E5EA"/>
<path transform="translate(1156,628)" d="m0 0 4 2 10 9 14 8 9 4h19l6-2 12-2 11-3h13l7 3 7 8 8 16 10 27 1 7-4 10-2 1 2-7v-12l-6-17-5-11-7-14-5-5-5-3-11-1-8 2-15 4-13 2h-13l-8-3-12-6-12-9-7-7z" fill="#99E5EA"/>
<path transform="translate(1306,1641)" d="m0 0 6 1 9 6 6 8 4 11v9l-3 11-6 9-5 4-6 3-4-1 10-5 8-10 1-4v-24l-4-6-7-6-1 3 1 3h2l4 5 2 7v9l-2 8h-1v-13l-2-9-5-7-8-4-10-1-4-1 3-1h18l-3-3z" fill="#99E5EA"/>
<path transform="translate(1311,731)" d="m0 0h117l-3 2-5 1h-101l-8-2z" fill="#A8EFF3"/>
<path transform="translate(955,975)" d="m0 0v3l-3 6-1 5v18l4 11 9 10 8 5 9 2 33 2 16 6 9 7 5 5-1 2-8-8-16-8-8-1-30-1-13-5-8-6-7-8-4-8-1-5v-17l3-9z" fill="#99E5EA"/>
<path transform="translate(805,1640)" d="m0 0 9 1 1 41v17l-1 5h-8l-1-4 4 3 1-6v-27l-2-28z" fill="#99E5EA"/>
<path transform="translate(1316,694)" d="m0 0h104l4 2-38 1h-76l4-2z" fill="#ABF0F4"/>
<path transform="translate(615,694)" d="m0 0h35l14 2v1l-121 1 2-2 6-1h46z" fill="#A9EFF3"/>
<path transform="translate(1426,1641)" d="m0 0h5l-2 2v3h16l6 5h-3l-5-2h-11l-8 4-6 7-1-4 5-6h2v-4l-4 1-3 3h-2l-1 4h-2l-1 4-4 10v8l5 13 7 8 7 4-3 1-9-6-6-9-3-8v-13l4-10 6-8 9-6z" fill="#99E5EA"/>
<path transform="translate(1582,1640)" d="m0 0h7l-1 6-16 32-2 26h-8v-1h5l-1-6v-13l4-8 7-16 6-9 3-9h-5z" fill="#99E5EA"/>
<path transform="translate(1268,936)" d="m0 0v3l-7 7-4 2-13 1-16-3-9-2-13-3h-8l-10 3-11 6-4 2 4-5 14-7 6-2h9l16 3 16 4h19l5-3z" fill="#99E5EA"/>
<path transform="translate(1135,1035)" d="m0 0 2 4 3 12v14l-3 8-6 5-16 8-14 6-11 4-5 1h-7l-5-1 2-2 17-1 12-5 24-11 4-2 2-4 3-5v-19l-2-6z" fill="#99E5EA"/>
<path transform="translate(858,1222)" d="m0 0h132v1l-55 1-32 1h-27l-14-1z" fill="#B1F4F8"/>
<path transform="translate(1436,1669)" d="m0 0h31l1 1v12l-6 12-7 6-2-1 8-8 4-7 1-11-2-2h-26l-2 2 1 1 22 1 2 2-1 5-2 1 1-6h-23l-2-1v-6z" fill="#99E5EA"/>
<path transform="translate(513,1640)" d="m0 0h14v1l-12 1 1 8-1 15v36l3 1h27l-1 2h-30l-1-1z" fill="#99E5EA"/>
<path transform="translate(770,1674)" d="m0 0h5l-1 27-2 3h-7l1-2 2 1 1-28z" fill="#99E5EA"/>
<path transform="translate(897,1640)" d="m0 0 4 1h-3v61l5 1v1h-6l-2-1-1-7 1-53z" fill="#99E5EA"/>
<path transform="translate(1081,1656)" d="m0 0h2l4 11v10l-3 10-6 9-5 4-6 3-4-1 10-5 8-10 1-4v-13h-2l2-4v-6z" fill="#99E5EA"/>
<path transform="translate(1276,1648)" d="m0 0 2 1-7 9-2 9v9l3 11 4 5v2l4 2 8 5 4 1 15 1v1h-17l-10-4-5-4-7-11-2-10v-7l3-11z" fill="#99E5EA"/>
<path transform="translate(649,1647)" d="m0 0h17l7 6h-3l-8-4h-12l-9 5-4 6-2 9v15l-2-3-2-4v-9l2-7 2-6 9-6z" fill="#99E5EA"/>
<path transform="translate(765,1640)" d="m0 0 8 1 1 1v26h5v1h-9l-2-27z" fill="#99E5EA"/>
<path transform="translate(1025,1658)" d="m0 0 1 4-1 13 3 12 9 10 4 3 7 2 15 1v1h-17l-10-4-5-4-6-9-3-12 1-11z" fill="#99E5EA"/>
<path transform="translate(1033,953)" d="m0 0 4 1-16 5-7 2-32 1-9 2-7 2-1 3-3-1 5-4 7-3 6-1 31-2 1-1 16-2z" fill="#99E5EA"/>
<path transform="translate(1284,880)" d="m0 0 3 3v13l-4 12-5 11-5 12-3 5-1-2 6-14 3-9h2l1-7 2-5 1-6z" fill="#99E5EA"/>
<path transform="translate(1274,721)" d="m0 0 2 1-8 6-14 8-11 8-7 8-4 5 1-5 4-6 8-7 16-10 12-7z" fill="#99E5EA"/>
<path transform="translate(832,525)" d="m0 0 2 1-10 8-8 7-24 24-2-1 9-9 6-7h2l1-3 8-7 9-8z" fill="#A6EDF1"/>
<path transform="translate(910,1664)" d="m0 0 3 1 12 17 4 8 8 11 1 2-4-2-12-17-10-16z" fill="#99E5EA"/>
<path transform="translate(1444,1641)" d="m0 0 8 1 8 6 4 5 2 3v4h-6l2-2-1-4-5-4-1-2-4-1-4-4z" fill="#99E5EA"/>
<path transform="translate(1076,1651)" d="m0 0 3 1 4 8-1 9-3-1-4-12-2-1 1-3z" fill="#B8F9FC"/>
<path transform="translate(1044,1057)" d="m0 0 5 5 14 23 3 3v2l4 2 3 3-5-1-7-8-16-26z" fill="#99E5EA"/>
<path transform="translate(970,860)" d="m0 0 25 1 16-1-3 2-11 1-2 1h-12l-13-3z" fill="#ABF1F4"/>
<path transform="translate(1541,1640)" d="m0 0h8v1h-5l8 18-1 3-10-19z" fill="#99E5EA"/>
<path transform="translate(679,1684)" d="m0 0 5 1 1 2-3 6-5 5-4 2 6-7 3-7-5 2-4 2 4-5z" fill="#99E5EA"/>
<path transform="translate(882,736)" d="m0 0 18 1 11-1-2 2-9 2h-6l-12-3z" fill="#A8EFF3"/>
<path transform="translate(522,1675)" d="m0 0 2 1-1 20 4 1h-5l-2-6z" fill="#99E5EA"/>
<path transform="translate(1288,1648)" d="m0 0 3 1-9 6-5 10h-1l1-7 5-7z" fill="#99E5EA"/>
<path transform="translate(664,1641)" d="m0 0 7 1 8 6 3 3-1 2-7-6-10-5z" fill="#99E5EA"/>
<path transform="translate(789,565)" d="m0 0v3l-8 11-4 3 2-4 8-11z" fill="#99E5EA"/>
<path transform="translate(857,1181)" d="m0 0h13v1l-12 1-8 8v-3l5-5z" fill="#C2F6F9"/>
<path transform="translate(632,1693)" d="m0 0 11 7 5 2-4 1-9-5-3-3z" fill="#99E5EA"/>
<path transform="translate(776,582)" d="m0 0v3l-7 10-3 2 2-5 7-9z" fill="#99E5EA"/>
<path transform="translate(832,525)" d="m0 0 2 1-10 8-4 3-2-1 10-8z" fill="#99E5EA"/>
</svg>
