<?xml version="1.0" standalone="no"?>
<!DOCTYPE svg PUBLIC "-//W3C//DTD SVG 20010904//EN"
 "http://www.w3.org/TR/2001/REC-SVG-20010904/DTD/svg10.dtd">
<svg version="1.0" xmlns="http://www.w3.org/2000/svg"
 width="128.000000pt" height="128.000000pt" viewBox="0 0 128.000000 128.000000"
 preserveAspectRatio="xMidYMid meet">

<g transform="translate(0.000000,128.000000) scale(0.100000,-0.100000)"
fill="#000000" stroke="none">
<path d="M433 1230 c-14 -6 -23 -18 -23 -30 0 -37 -39 -99 -79 -126 -22 -14
-42 -32 -45 -39 -9 -25 25 -160 60 -235 61 -130 141 -217 258 -279 l39 -20 51
27 c104 56 199 168 253 297 25 60 54 191 46 211 -3 8 -25 28 -48 44 -40 28
-75 80 -75 113 0 9 -7 23 -16 31 -13 14 -46 16 -207 15 -106 0 -202 -4 -214
-9z m401 -64 c7 -36 75 -121 105 -131 17 -5 18 -10 6 -73 -26 -134 -83 -241
-178 -329 -30 -29 -72 -60 -92 -70 -34 -16 -37 -16 -73 2 -63 33 -175 153
-210 225 -42 85 -80 232 -62 238 33 11 91 78 107 123 l18 49 186 0 187 0 6
-34z"/>
<path d="M484 1162 c-6 -4 -21 -28 -33 -55 -13 -26 -39 -60 -58 -74 -32 -25
-35 -30 -30 -66 6 -44 19 -63 37 -52 7 4 9 18 5 36 -6 25 -1 36 33 73 22 24
48 58 56 75 l17 31 129 0 129 0 17 -31 c8 -17 34 -51 56 -75 34 -37 39 -48 33
-73 -4 -18 -2 -32 6 -37 17 -10 39 24 39 63 0 26 -9 41 -41 70 -23 21 -50 57
-60 80 l-18 43 -153 0 c-84 0 -158 -4 -164 -8z"/>
<path d="M686 925 l-57 -86 -35 30 c-37 33 -49 37 -60 20 -8 -13 74 -99 96
-99 15 0 143 186 142 205 -1 6 -7 11 -15 13 -8 2 -38 -34 -71 -83z"/>
<path d="M404 855 c-16 -41 139 -233 214 -264 30 -12 35 -12 71 12 80 53 175
173 187 237 11 51 -22 37 -52 -22 -35 -70 -81 -126 -136 -165 l-46 -32 -53 38
c-56 40 -100 94 -138 169 -22 43 -38 53 -47 27z"/>
<path d="M17 632 c-15 -16 -17 -50 -17 -275 0 -304 -7 -287 125 -287 84 0 125
15 125 47 0 10 5 13 18 8 9 -4 66 -25 125 -47 l109 -41 219 31 c120 17 232 38
249 47 30 16 228 188 283 246 33 36 34 69 4 105 -39 45 -67 37 -212 -59 -129
-87 -185 -108 -185 -71 0 28 -33 73 -65 88 -16 7 -92 19 -168 25 -131 11 -143
14 -217 51 -43 22 -97 42 -119 46 -38 6 -41 9 -41 40 0 51 -27 64 -131 64 -71
0 -89 -3 -102 -18z m375 -166 c89 -43 99 -45 233 -56 106 -8 146 -15 165 -29
31 -22 39 -61 13 -61 -10 0 -92 -5 -182 -11 -117 -8 -166 -8 -174 0 -6 6 -17
11 -24 11 -21 0 -15 -28 11 -45 20 -14 43 -14 172 -5 82 5 187 10 234 10 l84
0 137 91 c120 79 140 89 158 79 12 -6 21 -19 21 -30 0 -26 -265 -268 -307
-279 -17 -5 -121 -22 -231 -37 l-199 -28 -127 48 -126 49 0 113 c0 69 -4 114
-10 114 -5 0 -10 11 -10 24 0 14 5 28 10 31 6 3 10 17 10 31 0 36 33 31 142
-20z m-248 -243 c4 -9 0 -23 -9 -32 -13 -14 -17 -14 -30 0 -19 19 -10 49 15
49 10 0 21 -8 24 -17z"/>
</g>
</svg>
