<?xml version="1.0" standalone="no"?>
<!DOCTYPE svg PUBLIC "-//W3C//DTD SVG 20010904//EN"
 "http://www.w3.org/TR/2001/REC-SVG-20010904/DTD/svg10.dtd">
<svg version="1.0" xmlns="http://www.w3.org/2000/svg"
 width="500.000000pt" height="500.000000pt" viewBox="0 0 500.000000 500.000000"
 preserveAspectRatio="xMidYMid meet">

<g transform="translate(0.000000,500.000000) scale(0.100000,-0.100000)"
fill="#000000" stroke="none">
<path d="M0 2500 l0 -2500 2500 0 2500 0 0 2500 0 2500 -2500 0 -2500 0 0
-2500z m2467 1344 c6 -54 12 -123 12 -152 1 -48 -1 -53 -25 -62 -41 -16 -92
-12 -103 8 -9 18 -31 197 -31 257 0 25 5 35 21 40 11 4 22 5 24 3 2 -2 9 -63
16 -136 12 -119 15 -132 32 -132 16 0 18 5 14 33 -3 17 -9 68 -12 112 -3 44
-8 90 -11 102 -4 21 15 34 41 29 6 -2 15 -47 22 -102z m273 72 c21 -10 25 -18
24 -51 -1 -67 -14 -115 -29 -115 -19 0 -19 -11 0 -80 19 -72 19 -72 -12 -68
-24 3 -29 10 -43 68 -17 70 -24 70 -34 -2 -6 -41 -10 -48 -30 -48 -12 0 -25 2
-28 5 -3 3 6 65 18 138 34 194 28 179 72 171 20 -3 48 -12 62 -18z m-590 -56
c25 -25 25 -32 0 -61 l-20 -24 -6 23 c-6 21 -24 29 -37 16 -3 -3 6 -35 19 -71
46 -122 52 -133 68 -127 8 3 12 12 9 20 -3 8 3 26 12 41 l18 26 12 -24 c13
-24 18 -51 16 -77 -2 -21 -88 -55 -108 -43 -10 5 -39 65 -65 133 -52 138 -51
151 13 174 46 17 46 17 69 -6z m832 -32 c-9 -41 -116 -278 -126 -278 -6 0 -17
4 -25 9 -14 9 -10 19 95 268 12 28 17 31 36 24 13 -5 22 -15 20 -23z m268
-154 c0 -20 -24 -34 -40 -24 -8 6 -18 10 -22 10 -3 0 -39 -47 -80 -105 -40
-58 -75 -105 -78 -105 -3 1 -13 7 -24 15 -17 13 -14 20 59 120 72 101 75 108
60 125 -13 14 -14 23 -6 39 11 19 13 18 71 -21 33 -23 60 -47 60 -54z m-1373
57 c11 -17 8 -22 -16 -38 l-29 -18 23 -34 23 -33 17 32 17 33 20 -20 c19 -19
19 -22 4 -51 -20 -39 -20 -51 3 -81 l19 -24 28 22 c27 21 29 21 41 5 7 -10 13
-21 13 -24 0 -7 -85 -70 -94 -70 -13 0 -166 227 -166 247 0 21 53 73 75 73 6
0 16 -9 22 -19z m1522 -192 c7 -12 9 -24 4 -28 -38 -26 -83 -65 -83 -72 0 -19
37 -8 74 22 37 31 38 32 57 12 19 -19 18 -20 -93 -111 -62 -51 -120 -92 -129
-92 -19 0 -79 64 -79 84 0 25 33 45 59 35 20 -8 21 -12 11 -25 -10 -11 -10
-18 -2 -26 8 -8 21 -3 49 18 l37 28 -42 18 c-23 11 -42 22 -41 26 0 7 150 131
159 132 3 0 11 -10 19 -21z m-1729 -27 c0 -26 -16 -47 -25 -33 -5 9 -10 9 -21
0 -16 -13 -5 -32 27 -50 15 -8 20 -3 31 35 l13 44 78 -65 c50 -42 77 -72 77
-85 0 -28 -47 -88 -68 -88 -33 0 -60 27 -55 55 6 28 13 31 31 13 9 -9 15 -9
25 1 10 10 5 19 -23 44 l-35 31 -9 -44 c-5 -25 -10 -47 -12 -49 -5 -6 -143
112 -149 127 -7 18 41 89 63 95 25 5 52 -11 52 -31z m905 -120 c81 -60 274
-151 418 -198 135 -44 123 -18 107 -220 -37 -467 -200 -789 -467 -921 -130
-64 -212 -53 -355 50 -233 168 -378 517 -382 925 l-1 133 130 43 c156 51 317
128 405 195 36 26 70 46 75 43 6 -3 37 -26 70 -50z m-335 -1479 c2 -2 -10 -59
-27 -126 -22 -82 -29 -125 -22 -132 14 -14 24 6 44 84 39 159 43 169 70 163
14 -2 25 -7 25 -11 0 -3 -13 -55 -30 -116 -33 -124 -36 -145 -16 -145 9 0 24
41 46 125 33 125 43 140 76 117 13 -8 -53 -260 -75 -286 -17 -20 -23 -20 -69
0 -20 10 -45 16 -56 15 -25 -4 -73 18 -80 36 -3 8 10 77 31 154 34 129 38 139
57 133 12 -4 23 -8 26 -11z m575 -25 c7 -18 28 -79 46 -136 30 -96 31 -103 15
-121 -15 -16 -77 -41 -104 -41 -8 0 -58 143 -98 282 -3 12 7 20 38 31 68 24
86 22 103 -15z m-212 -30 c8 -30 1 -38 -34 -38 -27 0 -29 -3 -29 -35 0 -39 7
-42 36 -20 28 21 34 18 34 -13 0 -23 -8 -33 -35 -48 -32 -17 -36 -23 -33 -54
3 -33 6 -35 41 -38 31 -3 37 -7 37 -26 0 -21 -6 -24 -57 -30 -31 -4 -60 -3
-64 1 -4 4 -9 73 -10 153 l-4 144 25 13 c41 21 87 17 93 -9z m-1128 -877 c3
-5 0 -13 -7 -17 -6 -4 -14 -2 -16 4 -9 27 -32 11 -32 -22 0 -35 13 -55 25 -36
3 5 13 10 21 10 12 0 12 -4 4 -20 -14 -26 -56 -26 -70 -1 -26 50 9 123 50 101
10 -5 21 -14 25 -19z m1683 -35 c4 -44 -11 -66 -44 -66 -44 0 -60 74 -23 111
18 18 23 19 42 6 15 -9 23 -27 25 -51z m322 29 c0 -8 -4 -15 -10 -15 -5 0 -10
5 -10 10 0 6 -7 10 -15 10 -23 0 -18 -15 10 -30 19 -10 25 -21 23 -39 -3 -29
-39 -41 -64 -21 -18 16 -18 30 1 30 8 0 15 -4 15 -10 0 -5 7 -10 15 -10 23 0
18 19 -9 32 -28 12 -38 31 -30 52 12 30 74 22 74 -9z m125 -13 c9 -42 -10 -82
-38 -82 -33 0 -47 18 -47 59 0 40 8 55 30 63 24 8 48 -9 55 -40z m-2012 -22
c12 -51 13 -60 1 -60 -8 0 -14 5 -14 10 0 6 -9 10 -20 10 -11 0 -20 -4 -20
-10 0 -5 -7 -10 -16 -10 -10 0 -14 6 -10 18 3 9 10 36 16 60 8 30 16 42 29 42
14 0 22 -14 34 -60z m77 10 c0 -47 2 -50 25 -50 14 0 25 -4 25 -10 0 -5 -16
-10 -35 -10 l-35 0 0 60 c0 33 4 60 10 60 6 0 10 -22 10 -50z m110 -10 c0 -33
-4 -60 -10 -60 -6 0 -10 27 -10 60 0 33 4 60 10 60 6 0 10 -27 10 -60z m128
12 c4 -52 -10 -72 -49 -72 -29 0 -29 1 -29 61 l0 60 38 -3 c36 -3 37 -4 40
-46z m120 -10 c17 -60 13 -69 -18 -50 -18 10 -24 10 -27 1 -5 -14 -33 -18 -33
-5 0 5 7 32 16 61 20 68 42 66 62 -7z m130 4 c4 -54 -5 -66 -50 -66 -27 0 -28
1 -28 61 l0 60 38 -3 c37 -3 37 -3 40 -52z m141 32 l8 -23 7 23 c4 12 14 22
21 22 12 0 12 -5 -1 -35 -7 -19 -14 -46 -14 -60 0 -16 -6 -25 -15 -25 -9 0
-15 9 -15 25 0 14 -7 41 -14 60 -13 31 -13 35 0 35 8 0 18 -10 23 -22z m228 7
c7 -21 -4 -32 -19 -17 -21 21 -28 13 -28 -28 0 -41 7 -49 28 -28 17 17 28 2
12 -17 -15 -18 -41 -20 -58 -3 -13 13 -17 90 -5 101 13 13 64 7 70 -8z m118
-45 c0 -50 -2 -55 -23 -58 -35 -5 -52 15 -52 63 0 50 5 57 45 53 29 -3 30 -4
30 -58z m90 43 c6 -17 7 -17 16 0 6 9 17 17 24 17 12 0 15 -14 15 -60 0 -47
-3 -60 -15 -60 -11 0 -15 11 -16 38 0 20 -3 31 -6 24 -4 -10 -8 -10 -19 -1
-12 9 -14 5 -14 -25 0 -20 -4 -36 -10 -36 -6 0 -10 27 -10 60 0 45 4 60 14 60
8 0 17 -8 21 -17z m174 -1 c12 -23 -4 -52 -29 -52 -15 0 -20 -7 -20 -25 0 -16
-6 -25 -15 -25 -12 0 -15 13 -15 60 l0 60 35 0 c23 0 38 -6 44 -18z m119 1 c6
-11 6 -25 0 -39 -7 -15 -7 -28 1 -43 10 -17 9 -21 -4 -21 -8 0 -21 12 -27 28
l-12 27 -4 -27 c-2 -16 -10 -28 -18 -28 -11 0 -14 15 -14 60 l0 60 35 0 c21 0
37 -6 43 -17z m211 0 c9 -17 10 -17 16 0 4 9 13 17 21 17 10 0 14 -15 14 -60
0 -33 -4 -60 -10 -60 -5 0 -10 17 -10 37 0 28 -3 34 -12 25 -8 -8 -15 -9 -25
-1 -10 9 -13 4 -13 -25 0 -20 -4 -36 -10 -36 -6 0 -10 27 -10 60 0 46 3 60 15
60 7 0 18 -8 24 -17z m121 -43 c0 -33 -4 -60 -10 -60 -6 0 -10 27 -10 60 0 33
4 60 10 60 6 0 10 -27 10 -60z"/>
<path d="M2675 3839 c-4 -22 -4 -43 -1 -46 13 -13 36 22 36 53 0 50 -26 45
-35 -7z"/>
<path d="M2475 3281 c-3 -6 -39 -31 -80 -56 -81 -51 -203 -104 -309 -136 l-69
-21 6 -121 c17 -373 151 -644 371 -752 60 -30 83 -37 114 -33 100 14 237 116
310 232 95 149 141 316 157 571 l7 100 -103 35 c-122 40 -254 103 -324 154
-51 37 -69 43 -80 27z m63 -71 c53 -42 203 -115 304 -147 l88 -28 0 -69 c0
-159 -48 -367 -113 -491 -69 -130 -227 -257 -320 -257 -58 0 -146 49 -217 121
-130 132 -203 339 -212 605 l-3 88 95 32 c107 36 235 99 295 144 22 17 41 31
43 31 2 1 20 -12 40 -29z"/>
<path d="M2556 2780 c-98 -99 -181 -180 -184 -180 -4 0 -30 27 -57 59 -28 33
-53 60 -57 60 -10 1 -68 -49 -68 -59 0 -13 172 -211 180 -208 4 2 105 104 226
227 l218 223 -32 29 c-18 16 -36 29 -40 29 -5 0 -88 -81 -186 -180z"/>
<path d="M2751 1861 c-15 -10 -6 -71 10 -71 15 0 22 27 12 54 -6 18 -12 23
-22 17z"/>
<path d="M2792 1738 c-7 -9 -10 -27 -6 -47 7 -36 15 -43 32 -32 9 5 9 17 -1
50 -10 37 -14 41 -25 29z"/>
<path d="M3102 943 c4 -52 28 -56 28 -4 0 30 -4 41 -16 41 -11 0 -14 -9 -12
-37z"/>
<path d="M3550 939 c0 -52 24 -48 28 4 2 28 -1 37 -12 37 -12 0 -16 -11 -16
-41z"/>
<path d="M1550 936 c0 -9 5 -16 10 -16 6 0 10 4 10 9 0 6 -4 13 -10 16 -5 3
-10 -1 -10 -9z"/>
<path d="M1852 943 c4 -52 28 -56 28 -4 0 30 -4 41 -16 41 -11 0 -14 -9 -12
-37z"/>
<path d="M1987 940 c-3 -12 0 -20 8 -20 8 0 11 8 8 20 -3 11 -7 20 -8 20 -1 0
-5 -9 -8 -20z"/>
<path d="M2110 940 c0 -29 4 -40 13 -37 6 2 12 19 12 37 0 18 -6 35 -12 38 -9
2 -13 -9 -13 -38z"/>
<path d="M2600 940 c0 -29 4 -40 13 -37 6 2 12 19 12 37 0 18 -6 35 -12 38 -9
2 -13 -9 -13 -38z"/>
<path d="M2860 965 c0 -8 7 -15 15 -15 8 0 15 7 15 15 0 8 -7 15 -15 15 -8 0
-15 -7 -15 -15z"/>
<path d="M2980 964 c0 -9 5 -14 12 -12 18 6 21 28 4 28 -9 0 -16 -7 -16 -16z"/>
</g>
</svg>
